<mxfile host="app.diagrams.net" modified="2022-05-29T08:46:21.124Z" agent="5.0 (Windows NT 10.0; Win64; x64) AppleWebKit/537.36 (KHTML, like Gecko) Chrome/100.0.4896.127 Safari/537.36 OPR/86.0.4363.64" etag="gGzQOJC8zDFGI9xt1B7z" version="18.1.3" type="github">
  <diagram id="1Im-tq4lwDIv4LrL1ETE" name="Page-1">
    <mxGraphModel dx="2824" dy="840" grid="1" gridSize="10" guides="1" tooltips="1" connect="1" arrows="1" fold="1" page="1" pageScale="1" pageWidth="1400" pageHeight="850" math="0" shadow="0">
      <root>
        <object label="" id="0">
          <mxCell />
        </object>
        <mxCell id="1" parent="0" />
        <mxCell id="oBPItjFKtVFV0bXXbR20-86" value="" style="edgeStyle=orthogonalEdgeStyle;rounded=0;orthogonalLoop=1;jettySize=auto;html=1;fontSize=12;fontColor=#000000;" parent="1" source="oBPItjFKtVFV0bXXbR20-74" edge="1">
          <mxGeometry relative="1" as="geometry">
            <mxPoint x="-170" y="1395" as="targetPoint" />
          </mxGeometry>
        </mxCell>
        <mxCell id="oBPItjFKtVFV0bXXbR20-130" value="" style="edgeStyle=orthogonalEdgeStyle;rounded=0;orthogonalLoop=1;jettySize=auto;html=1;fontSize=12;fontColor=#000000;" parent="1" target="oBPItjFKtVFV0bXXbR20-129" edge="1">
          <mxGeometry relative="1" as="geometry">
            <mxPoint x="116.36999999999989" y="1555" as="sourcePoint" />
          </mxGeometry>
        </mxCell>
        <mxCell id="oBPItjFKtVFV0bXXbR20-132" value="" style="edgeStyle=orthogonalEdgeStyle;rounded=0;orthogonalLoop=1;jettySize=auto;html=1;fontSize=12;fontColor=#000000;" parent="1" target="oBPItjFKtVFV0bXXbR20-131" edge="1">
          <mxGeometry relative="1" as="geometry">
            <mxPoint x="116.36999999999989" y="1635" as="sourcePoint" />
          </mxGeometry>
        </mxCell>
        <mxCell id="oBPItjFKtVFV0bXXbR20-144" value="" style="edgeStyle=orthogonalEdgeStyle;rounded=0;orthogonalLoop=1;jettySize=auto;html=1;fontSize=12;fontColor=#000000;" parent="1" target="oBPItjFKtVFV0bXXbR20-143" edge="1">
          <mxGeometry relative="1" as="geometry">
            <mxPoint x="116.36999999999989" y="1727.6" as="sourcePoint" />
          </mxGeometry>
        </mxCell>
        <mxCell id="wg2dsTlA_U0pnTTJLS8N-153" value="START" style="ellipse;whiteSpace=wrap;html=1;" vertex="1" parent="1">
          <mxGeometry x="640" y="40" width="120" height="40" as="geometry" />
        </mxCell>
        <mxCell id="wg2dsTlA_U0pnTTJLS8N-154" value="" style="edgeStyle=orthogonalEdgeStyle;rounded=0;orthogonalLoop=1;jettySize=auto;html=1;entryX=0.5;entryY=0;entryDx=0;entryDy=0;exitX=0.5;exitY=1;exitDx=0;exitDy=0;" edge="1" parent="1" source="wg2dsTlA_U0pnTTJLS8N-153" target="wg2dsTlA_U0pnTTJLS8N-155">
          <mxGeometry relative="1" as="geometry">
            <mxPoint x="470" y="90" as="sourcePoint" />
          </mxGeometry>
        </mxCell>
        <mxCell id="wg2dsTlA_U0pnTTJLS8N-155" value="&lt;span data-lucid-content=&quot;{&amp;quot;t&amp;quot;:&amp;quot;Set the strength of sonar sensor to ((1000 - sensor.getValue()) / 1000) * 10, Set MAX_SPEED = 5.24, robot = Robot()&amp;quot;,&amp;quot;m&amp;quot;:[{&amp;quot;s&amp;quot;:0,&amp;quot;n&amp;quot;:&amp;quot;a&amp;quot;,&amp;quot;v&amp;quot;:&amp;quot;center&amp;quot;},{&amp;quot;s&amp;quot;:0,&amp;quot;n&amp;quot;:&amp;quot;f&amp;quot;,&amp;quot;v&amp;quot;:&amp;quot;Liberation Serif&amp;quot;,&amp;quot;e&amp;quot;:115},{&amp;quot;s&amp;quot;:0,&amp;quot;n&amp;quot;:&amp;quot;s&amp;quot;,&amp;quot;v&amp;quot;:22.22222222222222,&amp;quot;e&amp;quot;:115},{&amp;quot;s&amp;quot;:0,&amp;quot;n&amp;quot;:&amp;quot;c&amp;quot;,&amp;quot;v&amp;quot;:&amp;quot;3a414aff&amp;quot;,&amp;quot;e&amp;quot;:115}]}&quot; data-lucid-type=&quot;application/vnd.lucid.text&quot;&gt;&lt;font style=&quot;font-size: 12px;&quot;&gt;&lt;font style=&quot;font-size: 12px;&quot;&gt;Set the strength of sonar sensor to ((1000 - sensor.getValue()) / 1000) * 10 &lt;br&gt;MAX_SPEED = 5.24&lt;/font&gt;&lt;br&gt;&lt;font style=&quot;font-size: 12px;&quot;&gt;&lt;span style=&quot;&quot;&gt;robot = Robot()&lt;/span&gt;&lt;/font&gt;&lt;br&gt;&lt;font style=&quot;font-size: 12px;&quot;&gt;&lt;span style=&quot;&quot;&gt;timestep = int(robot.getBasicTimeStep())&lt;br&gt;&lt;/span&gt;&lt;/font&gt;&lt;div&gt;leftWheel = robot.getMotor(&#39;left wheel&#39;)&lt;/div&gt;&lt;div&gt;rightWheel = robot.getMotor(&#39;right wheel&#39;)&lt;/div&gt;&lt;div&gt;&lt;div&gt;leftWheel.setPosition(float(&#39;inf&#39;))&lt;/div&gt;&lt;div&gt;rightWheel.setPosition(float(&#39;inf&#39;))&lt;/div&gt;&lt;/div&gt;&lt;/font&gt;&lt;/span&gt;" style="rounded=0;whiteSpace=wrap;html=1;" vertex="1" parent="1">
          <mxGeometry x="480" y="110" width="440" height="130" as="geometry" />
        </mxCell>
        <mxCell id="wg2dsTlA_U0pnTTJLS8N-156" value="Get and enable so0, so1, so2, so3, so4, so15." style="rounded=0;whiteSpace=wrap;html=1;" vertex="1" parent="1">
          <mxGeometry x="555" y="270" width="290" height="40" as="geometry" />
        </mxCell>
        <mxCell id="wg2dsTlA_U0pnTTJLS8N-157" value="" style="endArrow=classic;html=1;rounded=0;fontSize=12;fontColor=#000000;entryX=0.5;entryY=0;entryDx=0;entryDy=0;exitX=0.5;exitY=1;exitDx=0;exitDy=0;" edge="1" parent="1" source="wg2dsTlA_U0pnTTJLS8N-155" target="wg2dsTlA_U0pnTTJLS8N-156">
          <mxGeometry width="50" height="50" relative="1" as="geometry">
            <mxPoint x="460" y="260" as="sourcePoint" />
            <mxPoint x="410" y="160" as="targetPoint" />
          </mxGeometry>
        </mxCell>
        <mxCell id="wg2dsTlA_U0pnTTJLS8N-158" value="" style="edgeStyle=orthogonalEdgeStyle;rounded=0;orthogonalLoop=1;jettySize=auto;html=1;fontSize=12;fontColor=#000000;" edge="1" parent="1" source="wg2dsTlA_U0pnTTJLS8N-159" target="wg2dsTlA_U0pnTTJLS8N-165">
          <mxGeometry relative="1" as="geometry" />
        </mxCell>
        <mxCell id="wg2dsTlA_U0pnTTJLS8N-159" value="Move forward with max speed." style="rounded=0;whiteSpace=wrap;html=1;" vertex="1" parent="1">
          <mxGeometry x="595.5" y="425" width="210" height="40" as="geometry" />
        </mxCell>
        <mxCell id="wg2dsTlA_U0pnTTJLS8N-160" value="" style="edgeStyle=orthogonalEdgeStyle;rounded=0;orthogonalLoop=1;jettySize=auto;html=1;fontSize=12;fontColor=#000000;" edge="1" parent="1" source="wg2dsTlA_U0pnTTJLS8N-161" target="wg2dsTlA_U0pnTTJLS8N-159">
          <mxGeometry relative="1" as="geometry" />
        </mxCell>
        <mxCell id="wg2dsTlA_U0pnTTJLS8N-161" value="timestep != -1?" style="rhombus;whiteSpace=wrap;html=1;fontSize=12;fontColor=#000000;" vertex="1" parent="1">
          <mxGeometry x="643" y="340" width="115" height="50" as="geometry" />
        </mxCell>
        <mxCell id="wg2dsTlA_U0pnTTJLS8N-162" value="" style="endArrow=classic;html=1;rounded=0;fontSize=12;fontColor=#000000;exitX=0.5;exitY=1;exitDx=0;exitDy=0;entryX=0.5;entryY=0;entryDx=0;entryDy=0;" edge="1" parent="1" source="wg2dsTlA_U0pnTTJLS8N-156" target="wg2dsTlA_U0pnTTJLS8N-161">
          <mxGeometry width="50" height="50" relative="1" as="geometry">
            <mxPoint x="390" y="470" as="sourcePoint" />
            <mxPoint x="440" y="420" as="targetPoint" />
          </mxGeometry>
        </mxCell>
        <mxCell id="wg2dsTlA_U0pnTTJLS8N-163" value="" style="endArrow=classic;html=1;rounded=0;fontSize=12;fontColor=#000000;exitX=0;exitY=0.5;exitDx=0;exitDy=0;entryX=0;entryY=0.5;entryDx=0;entryDy=0;" edge="1" parent="1" source="wg2dsTlA_U0pnTTJLS8N-165" target="wg2dsTlA_U0pnTTJLS8N-161">
          <mxGeometry width="50" height="50" relative="1" as="geometry">
            <mxPoint x="50" y="570" as="sourcePoint" />
            <mxPoint x="120" y="510" as="targetPoint" />
            <Array as="points">
              <mxPoint x="400" y="535" />
              <mxPoint x="400" y="365" />
            </Array>
          </mxGeometry>
        </mxCell>
        <mxCell id="wg2dsTlA_U0pnTTJLS8N-164" value="" style="edgeStyle=orthogonalEdgeStyle;rounded=0;orthogonalLoop=1;jettySize=auto;html=1;fontSize=12;fontColor=#000000;" edge="1" parent="1" source="wg2dsTlA_U0pnTTJLS8N-165" target="wg2dsTlA_U0pnTTJLS8N-173">
          <mxGeometry relative="1" as="geometry" />
        </mxCell>
        <mxCell id="wg2dsTlA_U0pnTTJLS8N-165" value="getDistance(Sensor3) &lt;br&gt;&amp;lt; 0.45 ?" style="rhombus;whiteSpace=wrap;html=1;fontSize=12;fontColor=#000000;" vertex="1" parent="1">
          <mxGeometry x="580" y="510" width="240" height="50" as="geometry" />
        </mxCell>
        <mxCell id="wg2dsTlA_U0pnTTJLS8N-166" value="" style="edgeStyle=orthogonalEdgeStyle;rounded=0;orthogonalLoop=1;jettySize=auto;html=1;fontSize=12;fontColor=#000000;" edge="1" parent="1" source="wg2dsTlA_U0pnTTJLS8N-167" target="wg2dsTlA_U0pnTTJLS8N-169">
          <mxGeometry relative="1" as="geometry" />
        </mxCell>
        <mxCell id="wg2dsTlA_U0pnTTJLS8N-167" value="timestep != -1?" style="rhombus;whiteSpace=wrap;html=1;fontSize=12;fontColor=#000000;" vertex="1" parent="1">
          <mxGeometry x="642.5" y="650" width="115" height="50" as="geometry" />
        </mxCell>
        <mxCell id="wg2dsTlA_U0pnTTJLS8N-168" value="" style="edgeStyle=orthogonalEdgeStyle;rounded=0;orthogonalLoop=1;jettySize=auto;html=1;fontSize=12;fontColor=#000000;" edge="1" parent="1" source="wg2dsTlA_U0pnTTJLS8N-169" target="wg2dsTlA_U0pnTTJLS8N-177">
          <mxGeometry relative="1" as="geometry" />
        </mxCell>
        <mxCell id="wg2dsTlA_U0pnTTJLS8N-169" value="Rotate clockwise." style="rounded=0;whiteSpace=wrap;html=1;fontSize=12;fontColor=#000000;" vertex="1" parent="1">
          <mxGeometry x="622.5" y="730" width="154.5" height="40" as="geometry" />
        </mxCell>
        <mxCell id="wg2dsTlA_U0pnTTJLS8N-170" value="True" style="text;html=1;strokeColor=none;fillColor=none;align=center;verticalAlign=middle;whiteSpace=wrap;rounded=0;fontSize=12;fontColor=#000000;" vertex="1" parent="1">
          <mxGeometry x="643" y="560" width="60" height="30" as="geometry" />
        </mxCell>
        <mxCell id="wg2dsTlA_U0pnTTJLS8N-171" value="True" style="text;html=1;strokeColor=none;fillColor=none;align=center;verticalAlign=middle;whiteSpace=wrap;rounded=0;fontSize=12;fontColor=#000000;" vertex="1" parent="1">
          <mxGeometry x="643" y="390" width="60" height="30" as="geometry" />
        </mxCell>
        <mxCell id="wg2dsTlA_U0pnTTJLS8N-172" value="" style="edgeStyle=orthogonalEdgeStyle;rounded=0;orthogonalLoop=1;jettySize=auto;html=1;fontSize=12;fontColor=#000000;" edge="1" parent="1" source="wg2dsTlA_U0pnTTJLS8N-173" target="wg2dsTlA_U0pnTTJLS8N-167">
          <mxGeometry relative="1" as="geometry" />
        </mxCell>
        <mxCell id="wg2dsTlA_U0pnTTJLS8N-173" value="break" style="rounded=0;whiteSpace=wrap;html=1;fontSize=12;fontColor=#000000;" vertex="1" parent="1">
          <mxGeometry x="655" y="590" width="90" height="30" as="geometry" />
        </mxCell>
        <mxCell id="wg2dsTlA_U0pnTTJLS8N-174" value="False" style="text;html=1;strokeColor=none;fillColor=none;align=center;verticalAlign=middle;whiteSpace=wrap;rounded=0;fontSize=12;fontColor=#000000;" vertex="1" parent="1">
          <mxGeometry x="480" y="510" width="60" height="30" as="geometry" />
        </mxCell>
        <mxCell id="wg2dsTlA_U0pnTTJLS8N-175" value="True" style="text;html=1;strokeColor=none;fillColor=none;align=center;verticalAlign=middle;whiteSpace=wrap;rounded=0;fontSize=12;fontColor=#000000;" vertex="1" parent="1">
          <mxGeometry x="694.5" y="700" width="60" height="30" as="geometry" />
        </mxCell>
        <mxCell id="wg2dsTlA_U0pnTTJLS8N-176" value="" style="edgeStyle=orthogonalEdgeStyle;rounded=0;orthogonalLoop=1;jettySize=auto;html=1;fontSize=12;fontColor=#000000;" edge="1" parent="1" source="wg2dsTlA_U0pnTTJLS8N-177" target="wg2dsTlA_U0pnTTJLS8N-191">
          <mxGeometry relative="1" as="geometry" />
        </mxCell>
        <mxCell id="wg2dsTlA_U0pnTTJLS8N-177" value="getDistance(Sensor0) &lt;br&gt;&amp;lt; 1 ?" style="rhombus;whiteSpace=wrap;html=1;fontSize=12;fontColor=#000000;" vertex="1" parent="1">
          <mxGeometry x="580" y="800" width="240" height="50" as="geometry" />
        </mxCell>
        <mxCell id="wg2dsTlA_U0pnTTJLS8N-178" value="" style="endArrow=classic;html=1;rounded=0;fontSize=12;fontColor=#000000;exitX=0;exitY=0.5;exitDx=0;exitDy=0;" edge="1" parent="1" source="wg2dsTlA_U0pnTTJLS8N-177" target="wg2dsTlA_U0pnTTJLS8N-167">
          <mxGeometry width="50" height="50" relative="1" as="geometry">
            <mxPoint x="824.5" y="820" as="sourcePoint" />
            <mxPoint x="764.5" y="690" as="targetPoint" />
            <Array as="points">
              <mxPoint x="400" y="825" />
              <mxPoint x="400" y="675" />
            </Array>
          </mxGeometry>
        </mxCell>
        <mxCell id="wg2dsTlA_U0pnTTJLS8N-179" value="False" style="text;html=1;strokeColor=none;fillColor=none;align=center;verticalAlign=middle;whiteSpace=wrap;rounded=0;fontSize=12;fontColor=#000000;" vertex="1" parent="1">
          <mxGeometry x="480" y="800" width="60" height="30" as="geometry" />
        </mxCell>
        <mxCell id="wg2dsTlA_U0pnTTJLS8N-180" value="True" style="text;html=1;strokeColor=none;fillColor=none;align=center;verticalAlign=middle;whiteSpace=wrap;rounded=0;fontSize=12;fontColor=#000000;" vertex="1" parent="1">
          <mxGeometry x="694.5" y="850" width="60" height="30" as="geometry" />
        </mxCell>
        <mxCell id="wg2dsTlA_U0pnTTJLS8N-181" value="" style="edgeStyle=orthogonalEdgeStyle;rounded=0;orthogonalLoop=1;jettySize=auto;html=1;fontSize=12;fontColor=#000000;" edge="1" parent="1" source="wg2dsTlA_U0pnTTJLS8N-183" target="wg2dsTlA_U0pnTTJLS8N-186">
          <mxGeometry relative="1" as="geometry" />
        </mxCell>
        <mxCell id="wg2dsTlA_U0pnTTJLS8N-182" value="" style="edgeStyle=orthogonalEdgeStyle;rounded=0;orthogonalLoop=1;jettySize=auto;html=1;fontSize=12;fontColor=#000000;" edge="1" parent="1" source="wg2dsTlA_U0pnTTJLS8N-183" target="wg2dsTlA_U0pnTTJLS8N-209">
          <mxGeometry relative="1" as="geometry" />
        </mxCell>
        <mxCell id="wg2dsTlA_U0pnTTJLS8N-183" value="getDistance(Sensor3) &lt;br&gt;&amp;lt; 0.7 ?&lt;span style=&quot;color: rgba(0, 0, 0, 0); font-family: monospace; font-size: 0px; text-align: start;&quot;&gt;%3CmxGraphModel%3E%3Croot%3E%3CmxCell%20id%3D%220%22%2F%3E%3CmxCell%20id%3D%221%22%20parent%3D%220%22%2F%3E%3CmxCell%20id%3D%222%22%20value%3D%22getDistance(Sensor4)%20%26lt%3Bbr%26gt%3B%26amp%3Blt%3B%200.7%20%3F%22%20style%3D%22rhombus%3BwhiteSpace%3Dwrap%3Bhtml%3D1%3BfontSize%3D12%3BfontColor%3D%23000000%3B%22%20vertex%3D%221%22%20parent%3D%221%22%3E%3CmxGeometry%20x%3D%22305.5%22%20y%3D%221080%22%20width%3D%22240%22%20height%3D%2250%22%20as%3D%22geometry%22%2F%3E%3C%2FmxCell%3E%3C%2Froot%3E%3C%2FmxGraphModel%3E&lt;/span&gt;" style="rhombus;whiteSpace=wrap;html=1;fontSize=12;fontColor=#000000;" vertex="1" parent="1">
          <mxGeometry x="880" y="1110" width="240" height="50" as="geometry" />
        </mxCell>
        <mxCell id="wg2dsTlA_U0pnTTJLS8N-184" value="" style="edgeStyle=orthogonalEdgeStyle;rounded=0;orthogonalLoop=1;jettySize=auto;html=1;fontSize=12;fontColor=#000000;" edge="1" parent="1" source="wg2dsTlA_U0pnTTJLS8N-186" target="wg2dsTlA_U0pnTTJLS8N-189">
          <mxGeometry relative="1" as="geometry" />
        </mxCell>
        <mxCell id="wg2dsTlA_U0pnTTJLS8N-185" value="" style="edgeStyle=orthogonalEdgeStyle;rounded=0;orthogonalLoop=1;jettySize=auto;html=1;fontSize=12;fontColor=#000000;" edge="1" parent="1" source="wg2dsTlA_U0pnTTJLS8N-186" target="wg2dsTlA_U0pnTTJLS8N-214">
          <mxGeometry relative="1" as="geometry" />
        </mxCell>
        <mxCell id="wg2dsTlA_U0pnTTJLS8N-186" value="getDistance(Sensor2) &lt;br&gt;&amp;lt; 0.7 ?&lt;span style=&quot;color: rgba(0, 0, 0, 0); font-family: monospace; font-size: 0px; text-align: start;&quot;&gt;%3CmxGraphModel%3E%3Croot%3E%3CmxCell%20id%3D%220%22%2F%3E%3CmxCell%20id%3D%221%22%20parent%3D%220%22%2F%3E%3CmxCell%20id%3D%222%22%20value%3D%22getDistance(Sensor4)%20%26lt%3Bbr%26gt%3B%26amp%3Blt%3B%200.7%20%3F%22%20style%3D%22rhombus%3BwhiteSpace%3Dwrap%3Bhtml%3D1%3BfontSize%3D12%3BfontColor%3D%23000000%3B%22%20vertex%3D%221%22%20parent%3D%221%22%3E%3CmxGeometry%20x%3D%22305.5%22%20y%3D%221080%22%20width%3D%22240%22%20height%3D%2250%22%20as%3D%22geometry%22%2F%3E%3C%2FmxCell%3E%3C%2Froot%3E%3C%2FmxGraphModel%3E&lt;/span&gt;" style="rhombus;whiteSpace=wrap;html=1;fontSize=12;fontColor=#000000;" vertex="1" parent="1">
          <mxGeometry x="880" y="1195" width="240" height="50" as="geometry" />
        </mxCell>
        <mxCell id="wg2dsTlA_U0pnTTJLS8N-187" value="" style="edgeStyle=orthogonalEdgeStyle;rounded=0;orthogonalLoop=1;jettySize=auto;html=1;fontSize=12;fontColor=#000000;" edge="1" parent="1" source="wg2dsTlA_U0pnTTJLS8N-189" target="wg2dsTlA_U0pnTTJLS8N-216">
          <mxGeometry relative="1" as="geometry" />
        </mxCell>
        <mxCell id="wg2dsTlA_U0pnTTJLS8N-188" value="" style="edgeStyle=orthogonalEdgeStyle;rounded=0;orthogonalLoop=1;jettySize=auto;html=1;fontSize=12;fontColor=#000000;" edge="1" parent="1" source="wg2dsTlA_U0pnTTJLS8N-189" target="wg2dsTlA_U0pnTTJLS8N-196">
          <mxGeometry relative="1" as="geometry" />
        </mxCell>
        <mxCell id="wg2dsTlA_U0pnTTJLS8N-189" value="getDistance(Sensor1) &lt;br&gt;&amp;lt; 0.7 ?&lt;span style=&quot;color: rgba(0, 0, 0, 0); font-family: monospace; font-size: 0px; text-align: start;&quot;&gt;%3CmxGraphModel%3E%3Croot%3E%3CmxCell%20id%3D%220%22%2F%3E%3CmxCell%20id%3D%221%22%20parent%3D%220%22%2F%3E%3CmxCell%20id%3D%222%22%20value%3D%22getDistance(Sensor4)%20%26lt%3Bbr%26gt%3B%26amp%3Blt%3B%200.7%20%3F%22%20style%3D%22rhombus%3BwhiteSpace%3Dwrap%3Bhtml%3D1%3BfontSize%3D12%3BfontColor%3D%23000000%3B%22%20vertex%3D%221%22%20parent%3D%221%22%3E%3CmxGeometry%20x%3D%22305.5%22%20y%3D%221080%22%20width%3D%22240%22%20height%3D%2250%22%20as%3D%22geometry%22%2F%3E%3C%2FmxCell%3E%3C%2Froot%3E%3C%2FmxGraphModel%3E&lt;/span&gt;" style="rhombus;whiteSpace=wrap;html=1;fontSize=12;fontColor=#000000;" vertex="1" parent="1">
          <mxGeometry x="880" y="1280" width="240" height="50" as="geometry" />
        </mxCell>
        <mxCell id="wg2dsTlA_U0pnTTJLS8N-190" value="Move forward with max speed." style="rounded=0;whiteSpace=wrap;html=1;fontSize=12;fontColor=#000000;" vertex="1" parent="1">
          <mxGeometry x="1192.07" y="1200" width="180" height="40" as="geometry" />
        </mxCell>
        <mxCell id="wg2dsTlA_U0pnTTJLS8N-191" value="break" style="rounded=0;whiteSpace=wrap;html=1;fontSize=12;fontColor=#000000;" vertex="1" parent="1">
          <mxGeometry x="654.75" y="880" width="90" height="30" as="geometry" />
        </mxCell>
        <mxCell id="wg2dsTlA_U0pnTTJLS8N-192" value="" style="edgeStyle=orthogonalEdgeStyle;rounded=0;orthogonalLoop=1;jettySize=auto;html=1;fontSize=12;fontColor=#000000;" edge="1" parent="1" source="wg2dsTlA_U0pnTTJLS8N-193" target="wg2dsTlA_U0pnTTJLS8N-273">
          <mxGeometry relative="1" as="geometry" />
        </mxCell>
        <mxCell id="wg2dsTlA_U0pnTTJLS8N-193" value="timestep != -1?" style="rhombus;whiteSpace=wrap;html=1;fontSize=12;fontColor=#000000;" vertex="1" parent="1">
          <mxGeometry x="643" y="940" width="115" height="50" as="geometry" />
        </mxCell>
        <mxCell id="wg2dsTlA_U0pnTTJLS8N-194" value="" style="edgeStyle=orthogonalEdgeStyle;rounded=0;orthogonalLoop=1;jettySize=auto;html=1;fontSize=12;fontColor=#000000;" edge="1" parent="1" source="wg2dsTlA_U0pnTTJLS8N-196" target="wg2dsTlA_U0pnTTJLS8N-198">
          <mxGeometry relative="1" as="geometry" />
        </mxCell>
        <mxCell id="wg2dsTlA_U0pnTTJLS8N-195" value="" style="edgeStyle=orthogonalEdgeStyle;rounded=0;orthogonalLoop=1;jettySize=auto;html=1;fontSize=12;fontColor=#000000;" edge="1" parent="1" source="wg2dsTlA_U0pnTTJLS8N-196" target="wg2dsTlA_U0pnTTJLS8N-225">
          <mxGeometry relative="1" as="geometry" />
        </mxCell>
        <mxCell id="wg2dsTlA_U0pnTTJLS8N-196" value="getDistance(Sensor0) &lt;br&gt;&amp;lt; 0.7 ?" style="rhombus;whiteSpace=wrap;html=1;fontSize=12;fontColor=#000000;" vertex="1" parent="1">
          <mxGeometry x="880.5" y="1362.5" width="240" height="50" as="geometry" />
        </mxCell>
        <mxCell id="wg2dsTlA_U0pnTTJLS8N-197" value="" style="edgeStyle=orthogonalEdgeStyle;rounded=0;orthogonalLoop=1;jettySize=auto;html=1;fontSize=12;fontColor=#000000;" edge="1" parent="1" source="wg2dsTlA_U0pnTTJLS8N-198" target="wg2dsTlA_U0pnTTJLS8N-235">
          <mxGeometry relative="1" as="geometry" />
        </mxCell>
        <mxCell id="wg2dsTlA_U0pnTTJLS8N-198" value="getDistance(Sensor0) &lt;br&gt;&amp;gt; 0.7 ?" style="rhombus;whiteSpace=wrap;html=1;fontSize=12;fontColor=#000000;" vertex="1" parent="1">
          <mxGeometry x="880.5" y="1447.5" width="240" height="50" as="geometry" />
        </mxCell>
        <mxCell id="wg2dsTlA_U0pnTTJLS8N-199" value="" style="edgeStyle=orthogonalEdgeStyle;rounded=0;orthogonalLoop=1;jettySize=auto;html=1;fontSize=12;fontColor=#000000;" edge="1" parent="1" source="wg2dsTlA_U0pnTTJLS8N-201" target="wg2dsTlA_U0pnTTJLS8N-183">
          <mxGeometry relative="1" as="geometry" />
        </mxCell>
        <mxCell id="wg2dsTlA_U0pnTTJLS8N-200" value="" style="edgeStyle=orthogonalEdgeStyle;rounded=0;orthogonalLoop=1;jettySize=auto;html=1;fontSize=12;fontColor=#000000;" edge="1" parent="1" source="wg2dsTlA_U0pnTTJLS8N-201" target="wg2dsTlA_U0pnTTJLS8N-207">
          <mxGeometry relative="1" as="geometry" />
        </mxCell>
        <mxCell id="wg2dsTlA_U0pnTTJLS8N-201" value="getDistance(Sensor4) &lt;br&gt;&amp;lt; 0.7 ?" style="rhombus;whiteSpace=wrap;html=1;fontSize=12;fontColor=#000000;" vertex="1" parent="1">
          <mxGeometry x="880" y="1025" width="240" height="50" as="geometry" />
        </mxCell>
        <mxCell id="wg2dsTlA_U0pnTTJLS8N-202" value="" style="endArrow=classic;html=1;rounded=0;fontSize=12;fontColor=#000000;exitX=0.5;exitY=1;exitDx=0;exitDy=0;entryX=0.5;entryY=0;entryDx=0;entryDy=0;" edge="1" parent="1" source="wg2dsTlA_U0pnTTJLS8N-191" target="wg2dsTlA_U0pnTTJLS8N-193">
          <mxGeometry width="50" height="50" relative="1" as="geometry">
            <mxPoint x="840" y="960" as="sourcePoint" />
            <mxPoint x="890" y="910" as="targetPoint" />
          </mxGeometry>
        </mxCell>
        <mxCell id="wg2dsTlA_U0pnTTJLS8N-203" value="True" style="text;html=1;strokeColor=none;fillColor=none;align=center;verticalAlign=middle;whiteSpace=wrap;rounded=0;fontSize=12;fontColor=#000000;" vertex="1" parent="1">
          <mxGeometry x="200" y="1025" width="60" height="30" as="geometry" />
        </mxCell>
        <mxCell id="wg2dsTlA_U0pnTTJLS8N-204" value="True&lt;span style=&quot;color: rgba(0, 0, 0, 0); font-family: monospace; font-size: 0px; text-align: start;&quot;&gt;%3CmxGraphModel%3E%3Croot%3E%3CmxCell%20id%3D%220%22%2F%3E%3CmxCell%20id%3D%221%22%20parent%3D%220%22%2F%3E%3CmxCell%20id%3D%222%22%20value%3D%22True%22%20style%3D%22text%3Bhtml%3D1%3BstrokeColor%3Dnone%3BfillColor%3Dnone%3Balign%3Dcenter%3BverticalAlign%3Dmiddle%3BwhiteSpace%3Dwrap%3Brounded%3D0%3BfontSize%3D12%3BfontColor%3D%23000000%3B%22%20vertex%3D%221%22%20parent%3D%221%22%3E%3CmxGeometry%20x%3D%22860%22%20y%3D%221340%22%20width%3D%2260%22%20height%3D%2230%22%20as%3D%22geometry%22%2F%3E%3C%2FmxCell%3E%3C%2Froot%3E%3C%2FmxGraphModel%3E&lt;/span&gt;&lt;span style=&quot;color: rgba(0, 0, 0, 0); font-family: monospace; font-size: 0px; text-align: start;&quot;&gt;%3CmxGraphModel%3E%3Croot%3E%3CmxCell%20id%3D%220%22%2F%3E%3CmxCell%20id%3D%221%22%20parent%3D%220%22%2F%3E%3CmxCell%20id%3D%222%22%20value%3D%22True%22%20style%3D%22text%3Bhtml%3D1%3BstrokeColor%3Dnone%3BfillColor%3Dnone%3Balign%3Dcenter%3BverticalAlign%3Dmiddle%3BwhiteSpace%3Dwrap%3Brounded%3D0%3BfontSize%3D12%3BfontColor%3D%23000000%3B%22%20vertex%3D%221%22%20parent%3D%221%22%3E%3CmxGeometry%20x%3D%22860%22%20y%3D%221340%22%20width%3D%2260%22%20height%3D%2230%22%20as%3D%22geometry%22%2F%3E%3C%2FmxCell%3E%3C%2Froot%3E%3C%2FmxGraphModel%3E&lt;/span&gt;" style="text;html=1;strokeColor=none;fillColor=none;align=center;verticalAlign=middle;whiteSpace=wrap;rounded=0;fontSize=12;fontColor=#000000;" vertex="1" parent="1">
          <mxGeometry x="805.5" y="1025" width="60" height="30" as="geometry" />
        </mxCell>
        <mxCell id="wg2dsTlA_U0pnTTJLS8N-205" value="False" style="text;html=1;strokeColor=none;fillColor=none;align=center;verticalAlign=middle;whiteSpace=wrap;rounded=0;fontSize=12;fontColor=#000000;" vertex="1" parent="1">
          <mxGeometry x="1000" y="1075" width="60" height="30" as="geometry" />
        </mxCell>
        <mxCell id="wg2dsTlA_U0pnTTJLS8N-206" value="" style="edgeStyle=orthogonalEdgeStyle;rounded=0;orthogonalLoop=1;jettySize=auto;html=1;fontSize=12;fontColor=#000000;" edge="1" parent="1" source="wg2dsTlA_U0pnTTJLS8N-207" target="wg2dsTlA_U0pnTTJLS8N-210">
          <mxGeometry relative="1" as="geometry" />
        </mxCell>
        <mxCell id="wg2dsTlA_U0pnTTJLS8N-207" value="Rotate clockwise." style="rounded=0;whiteSpace=wrap;html=1;fontSize=12;fontColor=#000000;" vertex="1" parent="1">
          <mxGeometry x="623.25" y="1030" width="154.5" height="40" as="geometry" />
        </mxCell>
        <mxCell id="wg2dsTlA_U0pnTTJLS8N-208" value="" style="edgeStyle=orthogonalEdgeStyle;rounded=0;orthogonalLoop=1;jettySize=auto;html=1;fontSize=12;fontColor=#000000;" edge="1" parent="1" source="wg2dsTlA_U0pnTTJLS8N-209" target="wg2dsTlA_U0pnTTJLS8N-212">
          <mxGeometry relative="1" as="geometry" />
        </mxCell>
        <mxCell id="wg2dsTlA_U0pnTTJLS8N-209" value="Rotate clockwise." style="rounded=0;whiteSpace=wrap;html=1;fontSize=12;fontColor=#000000;" vertex="1" parent="1">
          <mxGeometry x="623" y="1115" width="154.5" height="40" as="geometry" />
        </mxCell>
        <mxCell id="wg2dsTlA_U0pnTTJLS8N-210" value="getDistance(Sensor4) &lt;br&gt;== 0.7 ?" style="rhombus;whiteSpace=wrap;html=1;fontSize=12;fontColor=#000000;" vertex="1" parent="1">
          <mxGeometry x="280" y="1025" width="240" height="50" as="geometry" />
        </mxCell>
        <mxCell id="wg2dsTlA_U0pnTTJLS8N-211" value="" style="edgeStyle=orthogonalEdgeStyle;rounded=0;orthogonalLoop=1;jettySize=auto;html=1;fontSize=12;fontColor=#000000;" edge="1" parent="1" source="wg2dsTlA_U0pnTTJLS8N-212">
          <mxGeometry relative="1" as="geometry">
            <mxPoint x="20" y="1060" as="targetPoint" />
          </mxGeometry>
        </mxCell>
        <mxCell id="wg2dsTlA_U0pnTTJLS8N-212" value="getDistance(Sensor3) &lt;br&gt;== 0.7 ?" style="rhombus;whiteSpace=wrap;html=1;fontSize=12;fontColor=#000000;" vertex="1" parent="1">
          <mxGeometry x="280" y="1110" width="240" height="50" as="geometry" />
        </mxCell>
        <mxCell id="wg2dsTlA_U0pnTTJLS8N-213" value="" style="edgeStyle=orthogonalEdgeStyle;rounded=0;orthogonalLoop=1;jettySize=auto;html=1;fontSize=12;fontColor=#000000;" edge="1" parent="1" source="wg2dsTlA_U0pnTTJLS8N-214" target="wg2dsTlA_U0pnTTJLS8N-218">
          <mxGeometry relative="1" as="geometry" />
        </mxCell>
        <mxCell id="wg2dsTlA_U0pnTTJLS8N-214" value="Sharp turn to right." style="rounded=0;whiteSpace=wrap;html=1;fontSize=12;fontColor=#000000;" vertex="1" parent="1">
          <mxGeometry x="622.5" y="1200" width="154.5" height="40" as="geometry" />
        </mxCell>
        <mxCell id="wg2dsTlA_U0pnTTJLS8N-215" value="" style="edgeStyle=orthogonalEdgeStyle;rounded=0;orthogonalLoop=1;jettySize=auto;html=1;fontSize=12;fontColor=#000000;" edge="1" parent="1" source="wg2dsTlA_U0pnTTJLS8N-216" target="wg2dsTlA_U0pnTTJLS8N-220">
          <mxGeometry relative="1" as="geometry" />
        </mxCell>
        <mxCell id="wg2dsTlA_U0pnTTJLS8N-216" value="Sharp turn to right." style="rounded=0;whiteSpace=wrap;html=1;fontSize=12;fontColor=#000000;" vertex="1" parent="1">
          <mxGeometry x="622.5" y="1285" width="154.5" height="40" as="geometry" />
        </mxCell>
        <mxCell id="wg2dsTlA_U0pnTTJLS8N-217" value="" style="edgeStyle=orthogonalEdgeStyle;rounded=0;orthogonalLoop=1;jettySize=auto;html=1;fontSize=12;fontColor=#000000;" edge="1" parent="1" source="wg2dsTlA_U0pnTTJLS8N-218">
          <mxGeometry relative="1" as="geometry">
            <mxPoint x="20" y="1140" as="targetPoint" />
          </mxGeometry>
        </mxCell>
        <mxCell id="wg2dsTlA_U0pnTTJLS8N-218" value="getDistance(Sensor2) &lt;br&gt;== 0.7 ?" style="rhombus;whiteSpace=wrap;html=1;fontSize=12;fontColor=#000000;" vertex="1" parent="1">
          <mxGeometry x="280" y="1195" width="240" height="50" as="geometry" />
        </mxCell>
        <mxCell id="wg2dsTlA_U0pnTTJLS8N-219" value="" style="edgeStyle=orthogonalEdgeStyle;rounded=0;orthogonalLoop=1;jettySize=auto;html=1;fontSize=12;fontColor=#000000;" edge="1" parent="1" source="wg2dsTlA_U0pnTTJLS8N-220">
          <mxGeometry relative="1" as="geometry">
            <mxPoint x="20" y="1230" as="targetPoint" />
          </mxGeometry>
        </mxCell>
        <mxCell id="wg2dsTlA_U0pnTTJLS8N-220" value="getDistance(Sensor1) &lt;br&gt;== 0.7 ?" style="rhombus;whiteSpace=wrap;html=1;fontSize=12;fontColor=#000000;" vertex="1" parent="1">
          <mxGeometry x="280" y="1280" width="240" height="50" as="geometry" />
        </mxCell>
        <mxCell id="wg2dsTlA_U0pnTTJLS8N-221" value="continue" style="rounded=0;whiteSpace=wrap;html=1;fontSize=12;fontColor=#000000;" vertex="1" parent="1">
          <mxGeometry x="-110" y="1035" width="90" height="30" as="geometry" />
        </mxCell>
        <mxCell id="wg2dsTlA_U0pnTTJLS8N-222" value="" style="endArrow=classic;html=1;rounded=0;fontSize=12;fontColor=#000000;exitX=0.5;exitY=0;exitDx=0;exitDy=0;" edge="1" parent="1" source="wg2dsTlA_U0pnTTJLS8N-221">
          <mxGeometry width="50" height="50" relative="1" as="geometry">
            <mxPoint x="350" y="1630" as="sourcePoint" />
            <mxPoint x="-65" y="970" as="targetPoint" />
            <Array as="points" />
          </mxGeometry>
        </mxCell>
        <mxCell id="wg2dsTlA_U0pnTTJLS8N-223" value="" style="edgeStyle=orthogonalEdgeStyle;rounded=0;orthogonalLoop=1;jettySize=auto;html=1;fontSize=12;fontColor=#000000;" edge="1" parent="1" source="wg2dsTlA_U0pnTTJLS8N-225" target="wg2dsTlA_U0pnTTJLS8N-228">
          <mxGeometry relative="1" as="geometry" />
        </mxCell>
        <mxCell id="wg2dsTlA_U0pnTTJLS8N-224" value="" style="edgeStyle=orthogonalEdgeStyle;rounded=0;orthogonalLoop=1;jettySize=auto;html=1;fontSize=12;fontColor=#000000;" edge="1" parent="1" source="wg2dsTlA_U0pnTTJLS8N-225" target="wg2dsTlA_U0pnTTJLS8N-229">
          <mxGeometry relative="1" as="geometry" />
        </mxCell>
        <mxCell id="wg2dsTlA_U0pnTTJLS8N-225" value="getDistance(Sensor0) &lt;br&gt;&amp;lt; 0.3 ?&lt;span style=&quot;color: rgba(0, 0, 0, 0); font-family: monospace; font-size: 0px; text-align: start;&quot;&gt;%3CmxGraphModel%3E%3Croot%3E%3CmxCell%20id%3D%220%22%2F%3E%3CmxCell%20id%3D%221%22%20parent%3D%220%22%2F%3E%3CmxCell%20id%3D%222%22%20value%3D%22getDistance(Sensor4)%20%26lt%3Bbr%26gt%3B%26amp%3Blt%3B%200.7%20%3F%22%20style%3D%22rhombus%3BwhiteSpace%3Dwrap%3Bhtml%3D1%3BfontSize%3D12%3BfontColor%3D%23000000%3B%22%20vertex%3D%221%22%20parent%3D%221%22%3E%3CmxGeometry%20x%3D%22305.5%22%20y%3D%221080%22%20width%3D%22240%22%20height%3D%2250%22%20as%3D%22geometry%22%2F%3E%3C%2FmxCell%3E%3C%2Froot%3E%3C%2FmxGraphModel%3E&lt;/span&gt;" style="rhombus;whiteSpace=wrap;html=1;fontSize=12;fontColor=#000000;" vertex="1" parent="1">
          <mxGeometry x="580.5" y="1362.5" width="240" height="50" as="geometry" />
        </mxCell>
        <mxCell id="wg2dsTlA_U0pnTTJLS8N-226" value="" style="edgeStyle=orthogonalEdgeStyle;rounded=0;orthogonalLoop=1;jettySize=auto;html=1;fontSize=12;fontColor=#000000;" edge="1" parent="1" source="wg2dsTlA_U0pnTTJLS8N-228" target="wg2dsTlA_U0pnTTJLS8N-230">
          <mxGeometry relative="1" as="geometry" />
        </mxCell>
        <mxCell id="wg2dsTlA_U0pnTTJLS8N-227" value="" style="edgeStyle=orthogonalEdgeStyle;rounded=0;orthogonalLoop=1;jettySize=auto;html=1;fontSize=12;fontColor=#000000;" edge="1" parent="1" source="wg2dsTlA_U0pnTTJLS8N-228" target="wg2dsTlA_U0pnTTJLS8N-250">
          <mxGeometry relative="1" as="geometry" />
        </mxCell>
        <mxCell id="wg2dsTlA_U0pnTTJLS8N-228" value="getDistance(Sensor0) &lt;br&gt;&amp;lt; 0.5 ?&lt;span style=&quot;color: rgba(0, 0, 0, 0); font-family: monospace; font-size: 0px; text-align: start;&quot;&gt;%3CmxGraphModel%3E%3Croot%3E%3CmxCell%20id%3D%220%22%2F%3E%3CmxCell%20id%3D%221%22%20parent%3D%220%22%2F%3E%3CmxCell%20id%3D%222%22%20value%3D%22getDistance(Sensor4)%20%26lt%3Bbr%26gt%3B%26amp%3Blt%3B%200.7%20%3F%22%20style%3D%22rhombus%3BwhiteSpace%3Dwrap%3Bhtml%3D1%3BfontSize%3D12%3BfontColor%3D%23000000%3B%22%20vertex%3D%221%22%20parent%3D%221%22%3E%3CmxGeometry%20x%3D%22305.5%22%20y%3D%221080%22%20width%3D%22240%22%20height%3D%2250%22%20as%3D%22geometry%22%2F%3E%3C%2FmxCell%3E%3C%2Froot%3E%3C%2FmxGraphModel%3E&lt;/span&gt;" style="rhombus;whiteSpace=wrap;html=1;fontSize=12;fontColor=#000000;" vertex="1" parent="1">
          <mxGeometry x="280.5" y="1362.5" width="240" height="50" as="geometry" />
        </mxCell>
        <mxCell id="wg2dsTlA_U0pnTTJLS8N-229" value="leftWheel.setVelocity(MAX_SPEED)&lt;br&gt;rightWheel.setVelocity(MAX_SPEED * 0.7)" style="rounded=0;whiteSpace=wrap;html=1;fontSize=12;fontColor=#000000;" vertex="1" parent="1">
          <mxGeometry x="578.93" y="1442.5" width="244.13" height="55" as="geometry" />
        </mxCell>
        <mxCell id="wg2dsTlA_U0pnTTJLS8N-230" value="leftWheel.setVelocity(MAX_SPEED)&lt;br&gt;rightWheel.setVelocity(MAX_SPEED * 0.8)" style="rounded=0;whiteSpace=wrap;html=1;fontSize=12;fontColor=#000000;" vertex="1" parent="1">
          <mxGeometry x="283.69" y="1445" width="233.62" height="55" as="geometry" />
        </mxCell>
        <mxCell id="wg2dsTlA_U0pnTTJLS8N-231" value="getDistance(Sensor0) &lt;br&gt;== 0.7 ?" style="rhombus;whiteSpace=wrap;html=1;fontSize=12;fontColor=#000000;" vertex="1" parent="1">
          <mxGeometry x="10" y="1780" width="210" height="50" as="geometry" />
        </mxCell>
        <mxCell id="wg2dsTlA_U0pnTTJLS8N-232" value="" style="edgeStyle=orthogonalEdgeStyle;rounded=0;orthogonalLoop=1;jettySize=auto;html=1;fontSize=12;fontColor=#000000;exitX=0;exitY=0.5;exitDx=0;exitDy=0;entryX=1;entryY=0.5;entryDx=0;entryDy=0;" edge="1" parent="1" source="wg2dsTlA_U0pnTTJLS8N-237" target="wg2dsTlA_U0pnTTJLS8N-254">
          <mxGeometry relative="1" as="geometry">
            <mxPoint x="586.1199999999999" y="1807.5294117647059" as="sourcePoint" />
            <mxPoint x="-24.999999999999545" y="1752.5" as="targetPoint" />
          </mxGeometry>
        </mxCell>
        <mxCell id="wg2dsTlA_U0pnTTJLS8N-233" value="" style="edgeStyle=orthogonalEdgeStyle;rounded=0;orthogonalLoop=1;jettySize=auto;html=1;fontSize=12;fontColor=#000000;" edge="1" parent="1" source="wg2dsTlA_U0pnTTJLS8N-235" target="wg2dsTlA_U0pnTTJLS8N-240">
          <mxGeometry relative="1" as="geometry" />
        </mxCell>
        <mxCell id="wg2dsTlA_U0pnTTJLS8N-234" value="" style="edgeStyle=orthogonalEdgeStyle;rounded=0;orthogonalLoop=1;jettySize=auto;html=1;fontSize=12;fontColor=#000000;" edge="1" parent="1" source="wg2dsTlA_U0pnTTJLS8N-235" target="wg2dsTlA_U0pnTTJLS8N-253">
          <mxGeometry relative="1" as="geometry" />
        </mxCell>
        <mxCell id="wg2dsTlA_U0pnTTJLS8N-235" value="getDistance(Sensor15) &lt;br&gt;&amp;gt; 0.4 ?&lt;span style=&quot;color: rgba(0, 0, 0, 0); font-family: monospace; font-size: 0px; text-align: start;&quot;&gt;%3CmxGraphModel%3E%3Croot%3E%3CmxCell%20id%3D%220%22%2F%3E%3CmxCell%20id%3D%221%22%20parent%3D%220%22%2F%3E%3CmxCell%20id%3D%222%22%20value%3D%22getDistance(Sensor4)%20%26lt%3Bbr%26gt%3B%26amp%3Blt%3B%200.7%20%3F%22%20style%3D%22rhombus%3BwhiteSpace%3Dwrap%3Bhtml%3D1%3BfontSize%3D12%3BfontColor%3D%23000000%3B%22%20vertex%3D%221%22%20parent%3D%221%22%3E%3CmxGeometry%20x%3D%22305.5%22%20y%3D%221080%22%20width%3D%22240%22%20height%3D%2250%22%20as%3D%22geometry%22%2F%3E%3C%2FmxCell%3E%3C%2Froot%3E%3C%2FmxGraphModel%3E&lt;/span&gt;" style="rhombus;whiteSpace=wrap;html=1;fontSize=12;fontColor=#000000;" vertex="1" parent="1">
          <mxGeometry x="880" y="1530" width="240" height="50" as="geometry" />
        </mxCell>
        <mxCell id="wg2dsTlA_U0pnTTJLS8N-236" value="" style="edgeStyle=orthogonalEdgeStyle;rounded=0;orthogonalLoop=1;jettySize=auto;html=1;fontSize=12;fontColor=#000000;" edge="1" parent="1" source="wg2dsTlA_U0pnTTJLS8N-237" target="wg2dsTlA_U0pnTTJLS8N-241">
          <mxGeometry relative="1" as="geometry" />
        </mxCell>
        <mxCell id="wg2dsTlA_U0pnTTJLS8N-237" value="getDistance(Sensor0) &lt;br&gt;&amp;gt; 0.9 ?&lt;span style=&quot;color: rgba(0, 0, 0, 0); font-family: monospace; font-size: 0px; text-align: start;&quot;&gt;%3CmxGraphModel%3E%3Croot%3E%3CmxCell%20id%3D%220%22%2F%3E%3CmxCell%20id%3D%221%22%20parent%3D%220%22%2F%3E%3CmxCell%20id%3D%222%22%20value%3D%22getDistance(Sensor4)%20%26lt%3Bbr%26gt%3B%26amp%3Blt%3B%200.7%20%3F%22%20style%3D%22rhombus%3BwhiteSpace%3Dwrap%3Bhtml%3D1%3BfontSize%3D12%3BfontColor%3D%23000000%3B%22%20vertex%3D%221%22%20parent%3D%221%22%3E%3CmxGeometry%20x%3D%22305.5%22%20y%3D%221080%22%20width%3D%22240%22%20height%3D%2250%22%20as%3D%22geometry%22%2F%3E%3C%2FmxCell%3E%3C%2Froot%3E%3C%2FmxGraphModel%3E&lt;/span&gt;" style="rhombus;whiteSpace=wrap;html=1;fontSize=12;fontColor=#000000;" vertex="1" parent="1">
          <mxGeometry x="581" y="1610" width="240" height="50" as="geometry" />
        </mxCell>
        <mxCell id="wg2dsTlA_U0pnTTJLS8N-238" value="" style="edgeStyle=orthogonalEdgeStyle;rounded=0;orthogonalLoop=1;jettySize=auto;html=1;fontSize=12;fontColor=#000000;" edge="1" parent="1" source="wg2dsTlA_U0pnTTJLS8N-240" target="wg2dsTlA_U0pnTTJLS8N-237">
          <mxGeometry relative="1" as="geometry" />
        </mxCell>
        <mxCell id="wg2dsTlA_U0pnTTJLS8N-239" value="" style="edgeStyle=orthogonalEdgeStyle;rounded=0;orthogonalLoop=1;jettySize=auto;html=1;fontSize=12;fontColor=#000000;" edge="1" parent="1" source="wg2dsTlA_U0pnTTJLS8N-240" target="wg2dsTlA_U0pnTTJLS8N-242">
          <mxGeometry relative="1" as="geometry" />
        </mxCell>
        <mxCell id="wg2dsTlA_U0pnTTJLS8N-240" value="getDistance(Sensor0) &lt;br&gt;&amp;gt; 1.1 ?&lt;span style=&quot;color: rgba(0, 0, 0, 0); font-family: monospace; font-size: 0px; text-align: start;&quot;&gt;%3CmxGraphModel%3E%3Croot%3E%3CmxCell%20id%3D%220%22%2F%3E%3CmxCell%20id%3D%221%22%20parent%3D%220%22%2F%3E%3CmxCell%20id%3D%222%22%20value%3D%22getDistance(Sensor4)%20%26lt%3Bbr%26gt%3B%26amp%3Blt%3B%200.7%20%3F%22%20style%3D%22rhombus%3BwhiteSpace%3Dwrap%3Bhtml%3D1%3BfontSize%3D12%3BfontColor%3D%23000000%3B%22%20vertex%3D%221%22%20parent%3D%221%22%3E%3CmxGeometry%20x%3D%22305.5%22%20y%3D%221080%22%20width%3D%22240%22%20height%3D%2250%22%20as%3D%22geometry%22%2F%3E%3C%2FmxCell%3E%3C%2Froot%3E%3C%2FmxGraphModel%3E&lt;/span&gt;" style="rhombus;whiteSpace=wrap;html=1;fontSize=12;fontColor=#000000;" vertex="1" parent="1">
          <mxGeometry x="880.5" y="1610" width="240" height="50" as="geometry" />
        </mxCell>
        <mxCell id="wg2dsTlA_U0pnTTJLS8N-241" value="leftWheel.setVelocity(MAX_SPEED * 0.8)&lt;br&gt;rightWheel.setVelocity(MAX_SPEED)" style="rounded=0;whiteSpace=wrap;html=1;fontSize=12;fontColor=#000000;" vertex="1" parent="1">
          <mxGeometry x="587.3699999999999" y="1690" width="227.25" height="55" as="geometry" />
        </mxCell>
        <mxCell id="wg2dsTlA_U0pnTTJLS8N-242" value="leftWheel.setVelocity(MAX_SPEED * 0.7)&lt;br&gt;rightWheel.setVelocity(MAX_SPEED)" style="rounded=0;whiteSpace=wrap;html=1;fontSize=12;fontColor=#000000;" vertex="1" parent="1">
          <mxGeometry x="886.3699999999999" y="1690" width="227.25" height="55" as="geometry" />
        </mxCell>
        <mxCell id="wg2dsTlA_U0pnTTJLS8N-243" value="True&lt;span style=&quot;color: rgba(0, 0, 0, 0); font-family: monospace; font-size: 0px; text-align: start;&quot;&gt;%3CmxGraphModel%3E%3Croot%3E%3CmxCell%20id%3D%220%22%2F%3E%3CmxCell%20id%3D%221%22%20parent%3D%220%22%2F%3E%3CmxCell%20id%3D%222%22%20value%3D%22True%22%20style%3D%22text%3Bhtml%3D1%3BstrokeColor%3Dnone%3BfillColor%3Dnone%3Balign%3Dcenter%3BverticalAlign%3Dmiddle%3BwhiteSpace%3Dwrap%3Brounded%3D0%3BfontSize%3D12%3BfontColor%3D%23000000%3B%22%20vertex%3D%221%22%20parent%3D%221%22%3E%3CmxGeometry%20x%3D%22860%22%20y%3D%221340%22%20width%3D%2260%22%20height%3D%2230%22%20as%3D%22geometry%22%2F%3E%3C%2FmxCell%3E%3C%2Froot%3E%3C%2FmxGraphModel%3E&lt;/span&gt;&lt;span style=&quot;color: rgba(0, 0, 0, 0); font-family: monospace; font-size: 0px; text-align: start;&quot;&gt;%3CmxGraphModel%3E%3Croot%3E%3CmxCell%20id%3D%220%22%2F%3E%3CmxCell%20id%3D%221%22%20parent%3D%220%22%2F%3E%3CmxCell%20id%3D%222%22%20value%3D%22True%22%20style%3D%22text%3Bhtml%3D1%3BstrokeColor%3Dnone%3BfillColor%3Dnone%3Balign%3Dcenter%3BverticalAlign%3Dmiddle%3BwhiteSpace%3Dwrap%3Brounded%3D0%3BfontSize%3D12%3BfontColor%3D%23000000%3B%22%20vertex%3D%221%22%20parent%3D%221%22%3E%3CmxGeometry%20x%3D%22860%22%20y%3D%221340%22%20width%3D%2260%22%20height%3D%2230%22%20as%3D%22geometry%22%2F%3E%3C%2FmxCell%3E%3C%2Froot%3E%3C%2FmxGraphModel%3E&lt;/span&gt;" style="text;html=1;strokeColor=none;fillColor=none;align=center;verticalAlign=middle;whiteSpace=wrap;rounded=0;fontSize=12;fontColor=#000000;" vertex="1" parent="1">
          <mxGeometry x="805.5" y="1110" width="60" height="30" as="geometry" />
        </mxCell>
        <mxCell id="wg2dsTlA_U0pnTTJLS8N-244" value="True&lt;span style=&quot;color: rgba(0, 0, 0, 0); font-family: monospace; font-size: 0px; text-align: start;&quot;&gt;%3CmxGraphModel%3E%3Croot%3E%3CmxCell%20id%3D%220%22%2F%3E%3CmxCell%20id%3D%221%22%20parent%3D%220%22%2F%3E%3CmxCell%20id%3D%222%22%20value%3D%22True%22%20style%3D%22text%3Bhtml%3D1%3BstrokeColor%3Dnone%3BfillColor%3Dnone%3Balign%3Dcenter%3BverticalAlign%3Dmiddle%3BwhiteSpace%3Dwrap%3Brounded%3D0%3BfontSize%3D12%3BfontColor%3D%23000000%3B%22%20vertex%3D%221%22%20parent%3D%221%22%3E%3CmxGeometry%20x%3D%22860%22%20y%3D%221340%22%20width%3D%2260%22%20height%3D%2230%22%20as%3D%22geometry%22%2F%3E%3C%2FmxCell%3E%3C%2Froot%3E%3C%2FmxGraphModel%3E&lt;/span&gt;&lt;span style=&quot;color: rgba(0, 0, 0, 0); font-family: monospace; font-size: 0px; text-align: start;&quot;&gt;%3CmxGraphModel%3E%3Croot%3E%3CmxCell%20id%3D%220%22%2F%3E%3CmxCell%20id%3D%221%22%20parent%3D%220%22%2F%3E%3CmxCell%20id%3D%222%22%20value%3D%22True%22%20style%3D%22text%3Bhtml%3D1%3BstrokeColor%3Dnone%3BfillColor%3Dnone%3Balign%3Dcenter%3BverticalAlign%3Dmiddle%3BwhiteSpace%3Dwrap%3Brounded%3D0%3BfontSize%3D12%3BfontColor%3D%23000000%3B%22%20vertex%3D%221%22%20parent%3D%221%22%3E%3CmxGeometry%20x%3D%22860%22%20y%3D%221340%22%20width%3D%2260%22%20height%3D%2230%22%20as%3D%22geometry%22%2F%3E%3C%2FmxCell%3E%3C%2Froot%3E%3C%2FmxGraphModel%3E&lt;/span&gt;" style="text;html=1;strokeColor=none;fillColor=none;align=center;verticalAlign=middle;whiteSpace=wrap;rounded=0;fontSize=12;fontColor=#000000;" vertex="1" parent="1">
          <mxGeometry x="805.5" y="1195" width="60" height="30" as="geometry" />
        </mxCell>
        <mxCell id="wg2dsTlA_U0pnTTJLS8N-245" value="True&lt;span style=&quot;color: rgba(0, 0, 0, 0); font-family: monospace; font-size: 0px; text-align: start;&quot;&gt;%3CmxGraphModel%3E%3Croot%3E%3CmxCell%20id%3D%220%22%2F%3E%3CmxCell%20id%3D%221%22%20parent%3D%220%22%2F%3E%3CmxCell%20id%3D%222%22%20value%3D%22True%22%20style%3D%22text%3Bhtml%3D1%3BstrokeColor%3Dnone%3BfillColor%3Dnone%3Balign%3Dcenter%3BverticalAlign%3Dmiddle%3BwhiteSpace%3Dwrap%3Brounded%3D0%3BfontSize%3D12%3BfontColor%3D%23000000%3B%22%20vertex%3D%221%22%20parent%3D%221%22%3E%3CmxGeometry%20x%3D%22860%22%20y%3D%221340%22%20width%3D%2260%22%20height%3D%2230%22%20as%3D%22geometry%22%2F%3E%3C%2FmxCell%3E%3C%2Froot%3E%3C%2FmxGraphModel%3E&lt;/span&gt;&lt;span style=&quot;color: rgba(0, 0, 0, 0); font-family: monospace; font-size: 0px; text-align: start;&quot;&gt;%3CmxGraphModel%3E%3Croot%3E%3CmxCell%20id%3D%220%22%2F%3E%3CmxCell%20id%3D%221%22%20parent%3D%220%22%2F%3E%3CmxCell%20id%3D%222%22%20value%3D%22True%22%20style%3D%22text%3Bhtml%3D1%3BstrokeColor%3Dnone%3BfillColor%3Dnone%3Balign%3Dcenter%3BverticalAlign%3Dmiddle%3BwhiteSpace%3Dwrap%3Brounded%3D0%3BfontSize%3D12%3BfontColor%3D%23000000%3B%22%20vertex%3D%221%22%20parent%3D%221%22%3E%3CmxGeometry%20x%3D%22860%22%20y%3D%221340%22%20width%3D%2260%22%20height%3D%2230%22%20as%3D%22geometry%22%2F%3E%3C%2FmxCell%3E%3C%2Froot%3E%3C%2FmxGraphModel%3E&lt;/span&gt;" style="text;html=1;strokeColor=none;fillColor=none;align=center;verticalAlign=middle;whiteSpace=wrap;rounded=0;fontSize=12;fontColor=#000000;" vertex="1" parent="1">
          <mxGeometry x="805.5" y="1280" width="60" height="30" as="geometry" />
        </mxCell>
        <mxCell id="wg2dsTlA_U0pnTTJLS8N-246" value="True&lt;span style=&quot;color: rgba(0, 0, 0, 0); font-family: monospace; font-size: 0px; text-align: start;&quot;&gt;%3CmxGraphModel%3E%3Croot%3E%3CmxCell%20id%3D%220%22%2F%3E%3CmxCell%20id%3D%221%22%20parent%3D%220%22%2F%3E%3CmxCell%20id%3D%222%22%20value%3D%22True%22%20style%3D%22text%3Bhtml%3D1%3BstrokeColor%3Dnone%3BfillColor%3Dnone%3Balign%3Dcenter%3BverticalAlign%3Dmiddle%3BwhiteSpace%3Dwrap%3Brounded%3D0%3BfontSize%3D12%3BfontColor%3D%23000000%3B%22%20vertex%3D%221%22%20parent%3D%221%22%3E%3CmxGeometry%20x%3D%22860%22%20y%3D%221340%22%20width%3D%2260%22%20height%3D%2230%22%20as%3D%22geometry%22%2F%3E%3C%2FmxCell%3E%3C%2Froot%3E%3C%2FmxGraphModel%3E&lt;/span&gt;&lt;span style=&quot;color: rgba(0, 0, 0, 0); font-family: monospace; font-size: 0px; text-align: start;&quot;&gt;%3CmxGraphModel%3E%3Croot%3E%3CmxCell%20id%3D%220%22%2F%3E%3CmxCell%20id%3D%221%22%20parent%3D%220%22%2F%3E%3CmxCell%20id%3D%222%22%20value%3D%22True%22%20style%3D%22text%3Bhtml%3D1%3BstrokeColor%3Dnone%3BfillColor%3Dnone%3Balign%3Dcenter%3BverticalAlign%3Dmiddle%3BwhiteSpace%3Dwrap%3Brounded%3D0%3BfontSize%3D12%3BfontColor%3D%23000000%3B%22%20vertex%3D%221%22%20parent%3D%221%22%3E%3CmxGeometry%20x%3D%22860%22%20y%3D%221340%22%20width%3D%2260%22%20height%3D%2230%22%20as%3D%22geometry%22%2F%3E%3C%2FmxCell%3E%3C%2Froot%3E%3C%2FmxGraphModel%3E&lt;/span&gt;" style="text;html=1;strokeColor=none;fillColor=none;align=center;verticalAlign=middle;whiteSpace=wrap;rounded=0;fontSize=12;fontColor=#000000;" vertex="1" parent="1">
          <mxGeometry x="700" y="1410" width="60" height="30" as="geometry" />
        </mxCell>
        <mxCell id="wg2dsTlA_U0pnTTJLS8N-247" value="True" style="text;html=1;strokeColor=none;fillColor=none;align=center;verticalAlign=middle;whiteSpace=wrap;rounded=0;fontSize=12;fontColor=#000000;" vertex="1" parent="1">
          <mxGeometry x="200" y="1110" width="60" height="30" as="geometry" />
        </mxCell>
        <mxCell id="wg2dsTlA_U0pnTTJLS8N-248" value="True" style="text;html=1;strokeColor=none;fillColor=none;align=center;verticalAlign=middle;whiteSpace=wrap;rounded=0;fontSize=12;fontColor=#000000;" vertex="1" parent="1">
          <mxGeometry x="200" y="1195" width="60" height="30" as="geometry" />
        </mxCell>
        <mxCell id="wg2dsTlA_U0pnTTJLS8N-249" value="True" style="text;html=1;strokeColor=none;fillColor=none;align=center;verticalAlign=middle;whiteSpace=wrap;rounded=0;fontSize=12;fontColor=#000000;" vertex="1" parent="1">
          <mxGeometry x="200" y="1280" width="60" height="30" as="geometry" />
        </mxCell>
        <mxCell id="wg2dsTlA_U0pnTTJLS8N-250" value="leftWheel.setVelocity(MAX_SPEED)&lt;br&gt;rightWheel.setVelocity(MAX_SPEED * 0.9)" style="rounded=0;whiteSpace=wrap;html=1;fontSize=12;fontColor=#000000;" vertex="1" parent="1">
          <mxGeometry x="-1.8100000000000005" y="1360" width="233.62" height="55" as="geometry" />
        </mxCell>
        <mxCell id="wg2dsTlA_U0pnTTJLS8N-251" value="True&lt;span style=&quot;color: rgba(0, 0, 0, 0); font-family: monospace; font-size: 0px; text-align: start;&quot;&gt;%3CmxGraphModel%3E%3Croot%3E%3CmxCell%20id%3D%220%22%2F%3E%3CmxCell%20id%3D%221%22%20parent%3D%220%22%2F%3E%3CmxCell%20id%3D%222%22%20value%3D%22True%22%20style%3D%22text%3Bhtml%3D1%3BstrokeColor%3Dnone%3BfillColor%3Dnone%3Balign%3Dcenter%3BverticalAlign%3Dmiddle%3BwhiteSpace%3Dwrap%3Brounded%3D0%3BfontSize%3D12%3BfontColor%3D%23000000%3B%22%20vertex%3D%221%22%20parent%3D%221%22%3E%3CmxGeometry%20x%3D%22860%22%20y%3D%221340%22%20width%3D%2260%22%20height%3D%2230%22%20as%3D%22geometry%22%2F%3E%3C%2FmxCell%3E%3C%2Froot%3E%3C%2FmxGraphModel%3E&lt;/span&gt;&lt;span style=&quot;color: rgba(0, 0, 0, 0); font-family: monospace; font-size: 0px; text-align: start;&quot;&gt;%3CmxGraphModel%3E%3Croot%3E%3CmxCell%20id%3D%220%22%2F%3E%3CmxCell%20id%3D%221%22%20parent%3D%220%22%2F%3E%3CmxCell%20id%3D%222%22%20value%3D%22True%22%20style%3D%22text%3Bhtml%3D1%3BstrokeColor%3Dnone%3BfillColor%3Dnone%3Balign%3Dcenter%3BverticalAlign%3Dmiddle%3BwhiteSpace%3Dwrap%3Brounded%3D0%3BfontSize%3D12%3BfontColor%3D%23000000%3B%22%20vertex%3D%221%22%20parent%3D%221%22%3E%3CmxGeometry%20x%3D%22860%22%20y%3D%221340%22%20width%3D%2260%22%20height%3D%2230%22%20as%3D%22geometry%22%2F%3E%3C%2FmxCell%3E%3C%2Froot%3E%3C%2FmxGraphModel%3E&lt;/span&gt;" style="text;html=1;strokeColor=none;fillColor=none;align=center;verticalAlign=middle;whiteSpace=wrap;rounded=0;fontSize=12;fontColor=#000000;" vertex="1" parent="1">
          <mxGeometry x="400" y="1410" width="60" height="30" as="geometry" />
        </mxCell>
        <mxCell id="wg2dsTlA_U0pnTTJLS8N-252" value="False" style="text;html=1;strokeColor=none;fillColor=none;align=center;verticalAlign=middle;whiteSpace=wrap;rounded=0;fontSize=12;fontColor=#000000;" vertex="1" parent="1">
          <mxGeometry x="235" y="1360" width="60" height="30" as="geometry" />
        </mxCell>
        <mxCell id="wg2dsTlA_U0pnTTJLS8N-253" value="leftWheel.setVelocity(MAX_SPEED * 0.5)&lt;br&gt;rightWheel.setVelocity(MAX_SPEED)" style="rounded=0;whiteSpace=wrap;html=1;fontSize=12;fontColor=#000000;" vertex="1" parent="1">
          <mxGeometry x="1159.9999999999998" y="1527.5" width="244.13" height="55" as="geometry" />
        </mxCell>
        <mxCell id="wg2dsTlA_U0pnTTJLS8N-254" value="leftWheel.setVelocity(MAX_SPEED * 0.9)&lt;br&gt;rightWheel.setVelocity(MAX_SPEED)" style="rounded=0;whiteSpace=wrap;html=1;fontSize=12;fontColor=#000000;" vertex="1" parent="1">
          <mxGeometry x="286.8699999999999" y="1690" width="227.25" height="55" as="geometry" />
        </mxCell>
        <mxCell id="wg2dsTlA_U0pnTTJLS8N-255" value="" style="endArrow=classic;html=1;rounded=0;fontSize=12;fontColor=#000000;exitX=0.5;exitY=1;exitDx=0;exitDy=0;entryX=1;entryY=0.5;entryDx=0;entryDy=0;" edge="1" parent="1" source="wg2dsTlA_U0pnTTJLS8N-254" target="wg2dsTlA_U0pnTTJLS8N-231">
          <mxGeometry width="50" height="50" relative="1" as="geometry">
            <mxPoint x="530" y="1940" as="sourcePoint" />
            <mxPoint x="596" y="1805" as="targetPoint" />
            <Array as="points">
              <mxPoint x="400" y="1805" />
            </Array>
          </mxGeometry>
        </mxCell>
        <mxCell id="wg2dsTlA_U0pnTTJLS8N-256" value="" style="endArrow=classic;html=1;rounded=0;fontSize=12;fontColor=#000000;exitX=0.5;exitY=1;exitDx=0;exitDy=0;" edge="1" parent="1" source="wg2dsTlA_U0pnTTJLS8N-242">
          <mxGeometry width="50" height="50" relative="1" as="geometry">
            <mxPoint x="930" y="1890" as="sourcePoint" />
            <mxPoint x="710" y="1800" as="targetPoint" />
            <Array as="points">
              <mxPoint x="1000" y="1800" />
            </Array>
          </mxGeometry>
        </mxCell>
        <mxCell id="wg2dsTlA_U0pnTTJLS8N-257" value="" style="endArrow=classic;html=1;rounded=0;fontSize=12;fontColor=#000000;exitX=0.5;exitY=1;exitDx=0;exitDy=0;" edge="1" parent="1" source="wg2dsTlA_U0pnTTJLS8N-253">
          <mxGeometry width="50" height="50" relative="1" as="geometry">
            <mxPoint x="1490" y="1800" as="sourcePoint" />
            <mxPoint x="1010" y="1800" as="targetPoint" />
            <Array as="points">
              <mxPoint x="1280" y="1800" />
            </Array>
          </mxGeometry>
        </mxCell>
        <mxCell id="wg2dsTlA_U0pnTTJLS8N-258" value="" style="endArrow=classic;html=1;rounded=0;fontSize=12;fontColor=#000000;exitX=0.5;exitY=1;exitDx=0;exitDy=0;entryX=0.5;entryY=0;entryDx=0;entryDy=0;" edge="1" parent="1" source="wg2dsTlA_U0pnTTJLS8N-193" target="wg2dsTlA_U0pnTTJLS8N-201">
          <mxGeometry width="50" height="50" relative="1" as="geometry">
            <mxPoint x="940" y="990" as="sourcePoint" />
            <mxPoint x="990" y="940" as="targetPoint" />
            <Array as="points">
              <mxPoint x="700" y="1000" />
              <mxPoint x="1000" y="1000" />
            </Array>
          </mxGeometry>
        </mxCell>
        <mxCell id="wg2dsTlA_U0pnTTJLS8N-259" value="" style="endArrow=classic;html=1;rounded=0;fontSize=12;fontColor=#000000;exitX=1;exitY=0.5;exitDx=0;exitDy=0;" edge="1" parent="1" source="wg2dsTlA_U0pnTTJLS8N-198">
          <mxGeometry width="50" height="50" relative="1" as="geometry">
            <mxPoint x="1270" y="1440" as="sourcePoint" />
            <mxPoint x="1282" y="1240" as="targetPoint" />
            <Array as="points">
              <mxPoint x="1282" y="1473" />
            </Array>
          </mxGeometry>
        </mxCell>
        <mxCell id="wg2dsTlA_U0pnTTJLS8N-260" value="" style="endArrow=classic;html=1;rounded=0;fontSize=12;fontColor=#000000;entryX=0;entryY=0.5;entryDx=0;entryDy=0;" edge="1" parent="1" target="wg2dsTlA_U0pnTTJLS8N-193">
          <mxGeometry width="50" height="50" relative="1" as="geometry">
            <mxPoint x="1370" y="1220" as="sourcePoint" />
            <mxPoint x="-80" y="970" as="targetPoint" />
            <Array as="points">
              <mxPoint x="1440" y="1220" />
              <mxPoint x="1440" y="1840" />
              <mxPoint x="-120" y="1840" />
              <mxPoint x="-120" y="965" />
            </Array>
          </mxGeometry>
        </mxCell>
        <mxCell id="wg2dsTlA_U0pnTTJLS8N-261" value="True&lt;span style=&quot;color: rgba(0, 0, 0, 0); font-family: monospace; font-size: 0px; text-align: start;&quot;&gt;%3CmxGraphModel%3E%3Croot%3E%3CmxCell%20id%3D%220%22%2F%3E%3CmxCell%20id%3D%221%22%20parent%3D%220%22%2F%3E%3CmxCell%20id%3D%222%22%20value%3D%22True%22%20style%3D%22text%3Bhtml%3D1%3BstrokeColor%3Dnone%3BfillColor%3Dnone%3Balign%3Dcenter%3BverticalAlign%3Dmiddle%3BwhiteSpace%3Dwrap%3Brounded%3D0%3BfontSize%3D12%3BfontColor%3D%23000000%3B%22%20vertex%3D%221%22%20parent%3D%221%22%3E%3CmxGeometry%20x%3D%22860%22%20y%3D%221340%22%20width%3D%2260%22%20height%3D%2230%22%20as%3D%22geometry%22%2F%3E%3C%2FmxCell%3E%3C%2Froot%3E%3C%2FmxGraphModel%3E&lt;/span&gt;&lt;span style=&quot;color: rgba(0, 0, 0, 0); font-family: monospace; font-size: 0px; text-align: start;&quot;&gt;%3CmxGraphModel%3E%3Croot%3E%3CmxCell%20id%3D%220%22%2F%3E%3CmxCell%20id%3D%221%22%20parent%3D%220%22%2F%3E%3CmxCell%20id%3D%222%22%20value%3D%22True%22%20style%3D%22text%3Bhtml%3D1%3BstrokeColor%3Dnone%3BfillColor%3Dnone%3Balign%3Dcenter%3BverticalAlign%3Dmiddle%3BwhiteSpace%3Dwrap%3Brounded%3D0%3BfontSize%3D12%3BfontColor%3D%23000000%3B%22%20vertex%3D%221%22%20parent%3D%221%22%3E%3CmxGeometry%20x%3D%22860%22%20y%3D%221340%22%20width%3D%2260%22%20height%3D%2230%22%20as%3D%22geometry%22%2F%3E%3C%2FmxCell%3E%3C%2Froot%3E%3C%2FmxGraphModel%3E&lt;/span&gt;" style="text;html=1;strokeColor=none;fillColor=none;align=center;verticalAlign=middle;whiteSpace=wrap;rounded=0;fontSize=12;fontColor=#000000;" vertex="1" parent="1">
          <mxGeometry x="820" y="1362.5" width="60" height="30" as="geometry" />
        </mxCell>
        <mxCell id="wg2dsTlA_U0pnTTJLS8N-262" value="False" style="text;html=1;strokeColor=none;fillColor=none;align=center;verticalAlign=middle;whiteSpace=wrap;rounded=0;fontSize=12;fontColor=#000000;" vertex="1" parent="1">
          <mxGeometry x="518.9300000000001" y="1360" width="60" height="30" as="geometry" />
        </mxCell>
        <mxCell id="wg2dsTlA_U0pnTTJLS8N-263" value="True&lt;span style=&quot;color: rgba(0, 0, 0, 0); font-family: monospace; font-size: 0px; text-align: start;&quot;&gt;%3CmxGraphModel%3E%3Croot%3E%3CmxCell%20id%3D%220%22%2F%3E%3CmxCell%20id%3D%221%22%20parent%3D%220%22%2F%3E%3CmxCell%20id%3D%222%22%20value%3D%22True%22%20style%3D%22text%3Bhtml%3D1%3BstrokeColor%3Dnone%3BfillColor%3Dnone%3Balign%3Dcenter%3BverticalAlign%3Dmiddle%3BwhiteSpace%3Dwrap%3Brounded%3D0%3BfontSize%3D12%3BfontColor%3D%23000000%3B%22%20vertex%3D%221%22%20parent%3D%221%22%3E%3CmxGeometry%20x%3D%22860%22%20y%3D%221340%22%20width%3D%2260%22%20height%3D%2230%22%20as%3D%22geometry%22%2F%3E%3C%2FmxCell%3E%3C%2Froot%3E%3C%2FmxGraphModel%3E&lt;/span&gt;&lt;span style=&quot;color: rgba(0, 0, 0, 0); font-family: monospace; font-size: 0px; text-align: start;&quot;&gt;%3CmxGraphModel%3E%3Croot%3E%3CmxCell%20id%3D%220%22%2F%3E%3CmxCell%20id%3D%221%22%20parent%3D%220%22%2F%3E%3CmxCell%20id%3D%222%22%20value%3D%22True%22%20style%3D%22text%3Bhtml%3D1%3BstrokeColor%3Dnone%3BfillColor%3Dnone%3Balign%3Dcenter%3BverticalAlign%3Dmiddle%3BwhiteSpace%3Dwrap%3Brounded%3D0%3BfontSize%3D12%3BfontColor%3D%23000000%3B%22%20vertex%3D%221%22%20parent%3D%221%22%3E%3CmxGeometry%20x%3D%22860%22%20y%3D%221340%22%20width%3D%2260%22%20height%3D%2230%22%20as%3D%22geometry%22%2F%3E%3C%2FmxCell%3E%3C%2Froot%3E%3C%2FmxGraphModel%3E&lt;/span&gt;" style="text;html=1;strokeColor=none;fillColor=none;align=center;verticalAlign=middle;whiteSpace=wrap;rounded=0;fontSize=12;fontColor=#000000;" vertex="1" parent="1">
          <mxGeometry x="-50" y="1780" width="60" height="30" as="geometry" />
        </mxCell>
        <mxCell id="wg2dsTlA_U0pnTTJLS8N-264" value="False" style="text;html=1;strokeColor=none;fillColor=none;align=center;verticalAlign=middle;whiteSpace=wrap;rounded=0;fontSize=12;fontColor=#000000;" vertex="1" parent="1">
          <mxGeometry x="1000" y="1160" width="60" height="30" as="geometry" />
        </mxCell>
        <mxCell id="wg2dsTlA_U0pnTTJLS8N-265" value="False" style="text;html=1;strokeColor=none;fillColor=none;align=center;verticalAlign=middle;whiteSpace=wrap;rounded=0;fontSize=12;fontColor=#000000;" vertex="1" parent="1">
          <mxGeometry x="1000" y="1250" width="60" height="30" as="geometry" />
        </mxCell>
        <mxCell id="wg2dsTlA_U0pnTTJLS8N-266" value="False" style="text;html=1;strokeColor=none;fillColor=none;align=center;verticalAlign=middle;whiteSpace=wrap;rounded=0;fontSize=12;fontColor=#000000;" vertex="1" parent="1">
          <mxGeometry x="1000" y="1332.5" width="60" height="30" as="geometry" />
        </mxCell>
        <mxCell id="wg2dsTlA_U0pnTTJLS8N-267" value="False" style="text;html=1;strokeColor=none;fillColor=none;align=center;verticalAlign=middle;whiteSpace=wrap;rounded=0;fontSize=12;fontColor=#000000;" vertex="1" parent="1">
          <mxGeometry x="1000" y="1415" width="60" height="30" as="geometry" />
        </mxCell>
        <mxCell id="wg2dsTlA_U0pnTTJLS8N-268" value="False" style="text;html=1;strokeColor=none;fillColor=none;align=center;verticalAlign=middle;whiteSpace=wrap;rounded=0;fontSize=12;fontColor=#000000;" vertex="1" parent="1">
          <mxGeometry x="1162.07" y="1447.5" width="60" height="30" as="geometry" />
        </mxCell>
        <mxCell id="wg2dsTlA_U0pnTTJLS8N-269" value="True&lt;span style=&quot;color: rgba(0, 0, 0, 0); font-family: monospace; font-size: 0px; text-align: start;&quot;&gt;%3CmxGraphModel%3E%3Croot%3E%3CmxCell%20id%3D%220%22%2F%3E%3CmxCell%20id%3D%221%22%20parent%3D%220%22%2F%3E%3CmxCell%20id%3D%222%22%20value%3D%22True%22%20style%3D%22text%3Bhtml%3D1%3BstrokeColor%3Dnone%3BfillColor%3Dnone%3Balign%3Dcenter%3BverticalAlign%3Dmiddle%3BwhiteSpace%3Dwrap%3Brounded%3D0%3BfontSize%3D12%3BfontColor%3D%23000000%3B%22%20vertex%3D%221%22%20parent%3D%221%22%3E%3CmxGeometry%20x%3D%22860%22%20y%3D%221340%22%20width%3D%2260%22%20height%3D%2230%22%20as%3D%22geometry%22%2F%3E%3C%2FmxCell%3E%3C%2Froot%3E%3C%2FmxGraphModel%3E&lt;/span&gt;&lt;span style=&quot;color: rgba(0, 0, 0, 0); font-family: monospace; font-size: 0px; text-align: start;&quot;&gt;%3CmxGraphModel%3E%3Croot%3E%3CmxCell%20id%3D%220%22%2F%3E%3CmxCell%20id%3D%221%22%20parent%3D%220%22%2F%3E%3CmxCell%20id%3D%222%22%20value%3D%22True%22%20style%3D%22text%3Bhtml%3D1%3BstrokeColor%3Dnone%3BfillColor%3Dnone%3Balign%3Dcenter%3BverticalAlign%3Dmiddle%3BwhiteSpace%3Dwrap%3Brounded%3D0%3BfontSize%3D12%3BfontColor%3D%23000000%3B%22%20vertex%3D%221%22%20parent%3D%221%22%3E%3CmxGeometry%20x%3D%22860%22%20y%3D%221340%22%20width%3D%2260%22%20height%3D%2230%22%20as%3D%22geometry%22%2F%3E%3C%2FmxCell%3E%3C%2Froot%3E%3C%2FmxGraphModel%3E&lt;/span&gt;" style="text;html=1;strokeColor=none;fillColor=none;align=center;verticalAlign=middle;whiteSpace=wrap;rounded=0;fontSize=12;fontColor=#000000;" vertex="1" parent="1">
          <mxGeometry x="1000" y="1497.5" width="60" height="30" as="geometry" />
        </mxCell>
        <mxCell id="wg2dsTlA_U0pnTTJLS8N-270" value="True&lt;span style=&quot;color: rgba(0, 0, 0, 0); font-family: monospace; font-size: 0px; text-align: start;&quot;&gt;%3CmxGraphModel%3E%3Croot%3E%3CmxCell%20id%3D%220%22%2F%3E%3CmxCell%20id%3D%221%22%20parent%3D%220%22%2F%3E%3CmxCell%20id%3D%222%22%20value%3D%22True%22%20style%3D%22text%3Bhtml%3D1%3BstrokeColor%3Dnone%3BfillColor%3Dnone%3Balign%3Dcenter%3BverticalAlign%3Dmiddle%3BwhiteSpace%3Dwrap%3Brounded%3D0%3BfontSize%3D12%3BfontColor%3D%23000000%3B%22%20vertex%3D%221%22%20parent%3D%221%22%3E%3CmxGeometry%20x%3D%22860%22%20y%3D%221340%22%20width%3D%2260%22%20height%3D%2230%22%20as%3D%22geometry%22%2F%3E%3C%2FmxCell%3E%3C%2Froot%3E%3C%2FmxGraphModel%3E&lt;/span&gt;&lt;span style=&quot;color: rgba(0, 0, 0, 0); font-family: monospace; font-size: 0px; text-align: start;&quot;&gt;%3CmxGraphModel%3E%3Croot%3E%3CmxCell%20id%3D%220%22%2F%3E%3CmxCell%20id%3D%221%22%20parent%3D%220%22%2F%3E%3CmxCell%20id%3D%222%22%20value%3D%22True%22%20style%3D%22text%3Bhtml%3D1%3BstrokeColor%3Dnone%3BfillColor%3Dnone%3Balign%3Dcenter%3BverticalAlign%3Dmiddle%3BwhiteSpace%3Dwrap%3Brounded%3D0%3BfontSize%3D12%3BfontColor%3D%23000000%3B%22%20vertex%3D%221%22%20parent%3D%221%22%3E%3CmxGeometry%20x%3D%22860%22%20y%3D%221340%22%20width%3D%2260%22%20height%3D%2230%22%20as%3D%22geometry%22%2F%3E%3C%2FmxCell%3E%3C%2Froot%3E%3C%2FmxGraphModel%3E&lt;/span&gt;" style="text;html=1;strokeColor=none;fillColor=none;align=center;verticalAlign=middle;whiteSpace=wrap;rounded=0;fontSize=12;fontColor=#000000;" vertex="1" parent="1">
          <mxGeometry x="1000" y="1580" width="60" height="30" as="geometry" />
        </mxCell>
        <mxCell id="wg2dsTlA_U0pnTTJLS8N-271" value="False" style="text;html=1;strokeColor=none;fillColor=none;align=center;verticalAlign=middle;whiteSpace=wrap;rounded=0;fontSize=12;fontColor=#000000;" vertex="1" parent="1">
          <mxGeometry x="826.3699999999999" y="1610" width="60" height="30" as="geometry" />
        </mxCell>
        <mxCell id="wg2dsTlA_U0pnTTJLS8N-272" value="False" style="text;html=1;strokeColor=none;fillColor=none;align=center;verticalAlign=middle;whiteSpace=wrap;rounded=0;fontSize=12;fontColor=#000000;" vertex="1" parent="1">
          <mxGeometry x="489.5" y="1640" width="65.5" height="40" as="geometry" />
        </mxCell>
        <mxCell id="wg2dsTlA_U0pnTTJLS8N-273" value="Stop the robot." style="rounded=0;whiteSpace=wrap;html=1;fontSize=12;fontColor=#000000;" vertex="1" parent="1">
          <mxGeometry x="923.25" y="945" width="154.5" height="40" as="geometry" />
        </mxCell>
        <mxCell id="wg2dsTlA_U0pnTTJLS8N-274" value="True&lt;span style=&quot;color: rgba(0, 0, 0, 0); font-family: monospace; font-size: 0px; text-align: start;&quot;&gt;%3CmxGraphModel%3E%3Croot%3E%3CmxCell%20id%3D%220%22%2F%3E%3CmxCell%20id%3D%221%22%20parent%3D%220%22%2F%3E%3CmxCell%20id%3D%222%22%20value%3D%22True%22%20style%3D%22text%3Bhtml%3D1%3BstrokeColor%3Dnone%3BfillColor%3Dnone%3Balign%3Dcenter%3BverticalAlign%3Dmiddle%3BwhiteSpace%3Dwrap%3Brounded%3D0%3BfontSize%3D12%3BfontColor%3D%23000000%3B%22%20vertex%3D%221%22%20parent%3D%221%22%3E%3CmxGeometry%20x%3D%22860%22%20y%3D%221340%22%20width%3D%2260%22%20height%3D%2230%22%20as%3D%22geometry%22%2F%3E%3C%2FmxCell%3E%3C%2Froot%3E%3C%2FmxGraphModel%3E&lt;/span&gt;&lt;span style=&quot;color: rgba(0, 0, 0, 0); font-family: monospace; font-size: 0px; text-align: start;&quot;&gt;%3CmxGraphModel%3E%3Croot%3E%3CmxCell%20id%3D%220%22%2F%3E%3CmxCell%20id%3D%221%22%20parent%3D%220%22%2F%3E%3CmxCell%20id%3D%222%22%20value%3D%22True%22%20style%3D%22text%3Bhtml%3D1%3BstrokeColor%3Dnone%3BfillColor%3Dnone%3Balign%3Dcenter%3BverticalAlign%3Dmiddle%3BwhiteSpace%3Dwrap%3Brounded%3D0%3BfontSize%3D12%3BfontColor%3D%23000000%3B%22%20vertex%3D%221%22%20parent%3D%221%22%3E%3CmxGeometry%20x%3D%22860%22%20y%3D%221340%22%20width%3D%2260%22%20height%3D%2230%22%20as%3D%22geometry%22%2F%3E%3C%2FmxCell%3E%3C%2Froot%3E%3C%2FmxGraphModel%3E&lt;/span&gt;" style="text;html=1;strokeColor=none;fillColor=none;align=center;verticalAlign=middle;whiteSpace=wrap;rounded=0;fontSize=12;fontColor=#000000;" vertex="1" parent="1">
          <mxGeometry x="746" y="970" width="56" height="30" as="geometry" />
        </mxCell>
        <mxCell id="wg2dsTlA_U0pnTTJLS8N-275" value="False" style="text;html=1;strokeColor=none;fillColor=none;align=center;verticalAlign=middle;whiteSpace=wrap;rounded=0;fontSize=12;fontColor=#000000;" vertex="1" parent="1">
          <mxGeometry x="806" y="940" width="60" height="30" as="geometry" />
        </mxCell>
        <mxCell id="wg2dsTlA_U0pnTTJLS8N-276" value="END" style="ellipse;whiteSpace=wrap;html=1;" vertex="1" parent="1">
          <mxGeometry x="1222.07" y="945" width="120" height="40" as="geometry" />
        </mxCell>
        <mxCell id="wg2dsTlA_U0pnTTJLS8N-277" value="" style="endArrow=classic;html=1;rounded=0;fontSize=12;fontColor=#000000;exitX=1;exitY=0.5;exitDx=0;exitDy=0;" edge="1" parent="1" source="wg2dsTlA_U0pnTTJLS8N-273">
          <mxGeometry width="50" height="50" relative="1" as="geometry">
            <mxPoint x="1040" y="950" as="sourcePoint" />
            <mxPoint x="1220" y="965" as="targetPoint" />
          </mxGeometry>
        </mxCell>
        <mxCell id="wg2dsTlA_U0pnTTJLS8N-278" value="" style="endArrow=classic;html=1;rounded=0;fontSize=12;fontColor=#000000;exitX=1;exitY=0.5;exitDx=0;exitDy=0;" edge="1" parent="1" source="wg2dsTlA_U0pnTTJLS8N-161">
          <mxGeometry width="50" height="50" relative="1" as="geometry">
            <mxPoint x="760" y="360" as="sourcePoint" />
            <mxPoint x="710" y="643" as="targetPoint" />
            <Array as="points">
              <mxPoint x="1000" y="365" />
              <mxPoint x="1000" y="643" />
            </Array>
          </mxGeometry>
        </mxCell>
        <mxCell id="wg2dsTlA_U0pnTTJLS8N-279" value="False" style="text;html=1;strokeColor=none;fillColor=none;align=center;verticalAlign=middle;whiteSpace=wrap;rounded=0;fontSize=12;fontColor=#000000;" vertex="1" parent="1">
          <mxGeometry x="840" y="340" width="60" height="30" as="geometry" />
        </mxCell>
        <mxCell id="wg2dsTlA_U0pnTTJLS8N-280" value="" style="endArrow=classic;html=1;rounded=0;fontSize=12;fontColor=#000000;exitX=1;exitY=0.5;exitDx=0;exitDy=0;" edge="1" parent="1">
          <mxGeometry width="50" height="50" relative="1" as="geometry">
            <mxPoint x="752.9999999999995" y="676" as="sourcePoint" />
            <mxPoint x="710" y="920" as="targetPoint" />
            <Array as="points">
              <mxPoint x="995" y="676" />
              <mxPoint x="995" y="920" />
            </Array>
          </mxGeometry>
        </mxCell>
        <mxCell id="wg2dsTlA_U0pnTTJLS8N-281" value="False" style="text;html=1;strokeColor=none;fillColor=none;align=center;verticalAlign=middle;whiteSpace=wrap;rounded=0;fontSize=12;fontColor=#000000;" vertex="1" parent="1">
          <mxGeometry x="840" y="650" width="60" height="30" as="geometry" />
        </mxCell>
        <mxCell id="wg2dsTlA_U0pnTTJLS8N-282" value="" style="endArrow=classic;html=1;rounded=0;fontSize=12;fontColor=#000000;entryX=0.5;entryY=0;entryDx=0;entryDy=0;exitX=0.5;exitY=1;exitDx=0;exitDy=0;" edge="1" parent="1" source="wg2dsTlA_U0pnTTJLS8N-250" target="wg2dsTlA_U0pnTTJLS8N-231">
          <mxGeometry width="50" height="50" relative="1" as="geometry">
            <mxPoint x="120" y="1430" as="sourcePoint" />
            <mxPoint x="140" y="1560" as="targetPoint" />
          </mxGeometry>
        </mxCell>
        <mxCell id="wg2dsTlA_U0pnTTJLS8N-283" value="" style="endArrow=classic;html=1;rounded=0;fontSize=12;fontColor=#000000;exitX=0;exitY=0.5;exitDx=0;exitDy=0;" edge="1" parent="1" source="wg2dsTlA_U0pnTTJLS8N-230">
          <mxGeometry width="50" height="50" relative="1" as="geometry">
            <mxPoint x="380" y="1590" as="sourcePoint" />
            <mxPoint x="120" y="1473" as="targetPoint" />
          </mxGeometry>
        </mxCell>
        <mxCell id="wg2dsTlA_U0pnTTJLS8N-284" value="" style="endArrow=classic;html=1;rounded=0;fontSize=12;fontColor=#000000;" edge="1" parent="1">
          <mxGeometry width="50" height="50" relative="1" as="geometry">
            <mxPoint x="700" y="1500" as="sourcePoint" />
            <mxPoint x="120" y="1560" as="targetPoint" />
            <Array as="points">
              <mxPoint x="700" y="1560" />
            </Array>
          </mxGeometry>
        </mxCell>
        <mxCell id="wg2dsTlA_U0pnTTJLS8N-285" value="" style="endArrow=classic;html=1;rounded=0;fontSize=12;fontColor=#000000;exitX=0;exitY=0.5;exitDx=0;exitDy=0;entryX=1;entryY=0.5;entryDx=0;entryDy=0;" edge="1" parent="1" source="wg2dsTlA_U0pnTTJLS8N-210" target="wg2dsTlA_U0pnTTJLS8N-221">
          <mxGeometry width="50" height="50" relative="1" as="geometry">
            <mxPoint x="30" y="1140" as="sourcePoint" />
            <mxPoint x="80" y="1090" as="targetPoint" />
          </mxGeometry>
        </mxCell>
        <mxCell id="wg2dsTlA_U0pnTTJLS8N-286" value="" style="endArrow=classic;html=1;rounded=0;fontSize=12;fontColor=#000000;exitX=0;exitY=0.5;exitDx=0;exitDy=0;entryX=0.5;entryY=1;entryDx=0;entryDy=0;" edge="1" parent="1" source="wg2dsTlA_U0pnTTJLS8N-231" target="wg2dsTlA_U0pnTTJLS8N-221">
          <mxGeometry width="50" height="50" relative="1" as="geometry">
            <mxPoint x="10" y="1750" as="sourcePoint" />
            <mxPoint x="60" y="1700" as="targetPoint" />
            <Array as="points">
              <mxPoint x="-60" y="1805" />
            </Array>
          </mxGeometry>
        </mxCell>
        <mxCell id="wg2dsTlA_U0pnTTJLS8N-287" value="" style="endArrow=classic;html=1;rounded=0;fontSize=12;fontColor=#000000;exitX=0.5;exitY=1;exitDx=0;exitDy=0;" edge="1" parent="1" source="wg2dsTlA_U0pnTTJLS8N-241">
          <mxGeometry width="50" height="50" relative="1" as="geometry">
            <mxPoint x="430" y="1880" as="sourcePoint" />
            <mxPoint x="410" y="1800" as="targetPoint" />
            <Array as="points">
              <mxPoint x="700" y="1800" />
            </Array>
          </mxGeometry>
        </mxCell>
        <mxCell id="wg2dsTlA_U0pnTTJLS8N-288" value="True&lt;span style=&quot;color: rgba(0, 0, 0, 0); font-family: monospace; font-size: 0px; text-align: start;&quot;&gt;%3CmxGraphModel%3E%3Croot%3E%3CmxCell%20id%3D%220%22%2F%3E%3CmxCell%20id%3D%221%22%20parent%3D%220%22%2F%3E%3CmxCell%20id%3D%222%22%20value%3D%22True%22%20style%3D%22text%3Bhtml%3D1%3BstrokeColor%3Dnone%3BfillColor%3Dnone%3Balign%3Dcenter%3BverticalAlign%3Dmiddle%3BwhiteSpace%3Dwrap%3Brounded%3D0%3BfontSize%3D12%3BfontColor%3D%23000000%3B%22%20vertex%3D%221%22%20parent%3D%221%22%3E%3CmxGeometry%20x%3D%22860%22%20y%3D%221340%22%20width%3D%2260%22%20height%3D%2230%22%20as%3D%22geometry%22%2F%3E%3C%2FmxCell%3E%3C%2Froot%3E%3C%2FmxGraphModel%3E&lt;/span&gt;&lt;span style=&quot;color: rgba(0, 0, 0, 0); font-family: monospace; font-size: 0px; text-align: start;&quot;&gt;%3CmxGraphModel%3E%3Croot%3E%3CmxCell%20id%3D%220%22%2F%3E%3CmxCell%20id%3D%221%22%20parent%3D%220%22%2F%3E%3CmxCell%20id%3D%222%22%20value%3D%22True%22%20style%3D%22text%3Bhtml%3D1%3BstrokeColor%3Dnone%3BfillColor%3Dnone%3Balign%3Dcenter%3BverticalAlign%3Dmiddle%3BwhiteSpace%3Dwrap%3Brounded%3D0%3BfontSize%3D12%3BfontColor%3D%23000000%3B%22%20vertex%3D%221%22%20parent%3D%221%22%3E%3CmxGeometry%20x%3D%22860%22%20y%3D%221340%22%20width%3D%2260%22%20height%3D%2230%22%20as%3D%22geometry%22%2F%3E%3C%2FmxCell%3E%3C%2Froot%3E%3C%2FmxGraphModel%3E&lt;/span&gt;" style="text;html=1;strokeColor=none;fillColor=none;align=center;verticalAlign=middle;whiteSpace=wrap;rounded=0;fontSize=12;fontColor=#000000;" vertex="1" parent="1">
          <mxGeometry x="1000" y="1660" width="60" height="30" as="geometry" />
        </mxCell>
        <mxCell id="wg2dsTlA_U0pnTTJLS8N-289" value="True&lt;span style=&quot;color: rgba(0, 0, 0, 0); font-family: monospace; font-size: 0px; text-align: start;&quot;&gt;%3CmxGraphModel%3E%3Croot%3E%3CmxCell%20id%3D%220%22%2F%3E%3CmxCell%20id%3D%221%22%20parent%3D%220%22%2F%3E%3CmxCell%20id%3D%222%22%20value%3D%22True%22%20style%3D%22text%3Bhtml%3D1%3BstrokeColor%3Dnone%3BfillColor%3Dnone%3Balign%3Dcenter%3BverticalAlign%3Dmiddle%3BwhiteSpace%3Dwrap%3Brounded%3D0%3BfontSize%3D12%3BfontColor%3D%23000000%3B%22%20vertex%3D%221%22%20parent%3D%221%22%3E%3CmxGeometry%20x%3D%22860%22%20y%3D%221340%22%20width%3D%2260%22%20height%3D%2230%22%20as%3D%22geometry%22%2F%3E%3C%2FmxCell%3E%3C%2Froot%3E%3C%2FmxGraphModel%3E&lt;/span&gt;&lt;span style=&quot;color: rgba(0, 0, 0, 0); font-family: monospace; font-size: 0px; text-align: start;&quot;&gt;%3CmxGraphModel%3E%3Croot%3E%3CmxCell%20id%3D%220%22%2F%3E%3CmxCell%20id%3D%221%22%20parent%3D%220%22%2F%3E%3CmxCell%20id%3D%222%22%20value%3D%22True%22%20style%3D%22text%3Bhtml%3D1%3BstrokeColor%3Dnone%3BfillColor%3Dnone%3Balign%3Dcenter%3BverticalAlign%3Dmiddle%3BwhiteSpace%3Dwrap%3Brounded%3D0%3BfontSize%3D12%3BfontColor%3D%23000000%3B%22%20vertex%3D%221%22%20parent%3D%221%22%3E%3CmxGeometry%20x%3D%22860%22%20y%3D%221340%22%20width%3D%2260%22%20height%3D%2230%22%20as%3D%22geometry%22%2F%3E%3C%2FmxCell%3E%3C%2Froot%3E%3C%2FmxGraphModel%3E&lt;/span&gt;" style="text;html=1;strokeColor=none;fillColor=none;align=center;verticalAlign=middle;whiteSpace=wrap;rounded=0;fontSize=12;fontColor=#000000;" vertex="1" parent="1">
          <mxGeometry x="698" y="1660" width="60" height="30" as="geometry" />
        </mxCell>
      </root>
    </mxGraphModel>
  </diagram>
</mxfile>
